  0
SECTION
  2
HEADER
  9
$ACADVER
  1
AC1024
  9
$ACADMAINTVER
 70
     6
  9
$DWGCODEPAGE
  3
ANSI_1251
  9
$INSBASE
 10
0.0
 20
0.0
 30
0.0
  9
$EXTMIN
 10
-3.04
 20
-3.04
 30
0.0
  9
$EXTMAX
 10
38.6
 20
25.9
 30
0.0
  9
$LIMMIN
 10
0.0
 20
0.0
  9
$LIMMAX
 10
420.0
 20
297.0
  9
$ORTHOMODE
 70
     0
  9
$REGENMODE
 70
     1
  9
$FILLMODE
 70
     1
  9
$QTEXTMODE
 70
     0
  9
$MIRRTEXT
 70
     1
  9
$LTSCALE
 40
1.0
  9
$ATTMODE
 70
     1
  9
$TEXTSIZE
 40
2.5
  9
$TRACEWID
 40
1.0
  9
$TEXTSTYLE
  7
Standard
  9
$CLAYER
  8
0
  9
$CELTYPE
  6
ByLayer
  9
$CECOLOR
 62
   256
  9
$CELTSCALE
 40
1.0
  9
$DISPSILH
 70
     0
  9
$DIMSCALE
 40
1.0
  9
$DIMASZ
 40
2.5
  9
$DIMEXO
 40
0.625
  9
$DIMDLI
 40
3.75
  9
$DIMRND
 40
0.0
  9
$DIMDLE
 40
0.0
  9
$DIMEXE
 40
1.25
  9
$DIMTP
 40
0.0
  9
$DIMTM
 40
0.0
  9
$DIMTXT
 40
2.5
  9
$DIMCEN
 40
2.5
  9
$DIMTSZ
 40
0.0
  9
$DIMTOL
 70
     0
  9
$DIMLIM
 70
     0
  9
$DIMTIH
 70
     0
  9
$DIMTOH
 70
     0
  9
$DIMSE1
 70
     0
  9
$DIMSE2
 70
     0
  9
$DIMTAD
 70
     1
  9
$DIMZIN
 70
     8
  9
$DIMBLK
  1

  9
$DIMASO
 70
     1
  9
$DIMSHO
 70
     1
  9
$DIMPOST
  1

  9
$DIMAPOST
  1

  9
$DIMALT
 70
     0
  9
$DIMALTD
 70
     3
  9
$DIMALTF
 40
0.03937007874016
  9
$DIMLFAC
 40
1.0
  9
$DIMTOFL
 70
     1
  9
$DIMTVP
 40
0.0
  9
$DIMTIX
 70
     0
  9
$DIMSOXD
 70
     0
  9
$DIMSAH
 70
     0
  9
$DIMBLK1
  1

  9
$DIMBLK2
  1

  9
$DIMSTYLE
  2
ISO-25
  9
$DIMCLRD
 70
     0
  9
$DIMCLRE
 70
     0
  9
$DIMCLRT
 70
     0
  9
$DIMTFAC
 40
1.0
  9
$DIMGAP
 40
0.625
  9
$DIMJUST
 70
     0
  9
$DIMSD1
 70
     0
  9
$DIMSD2
 70
     0
  9
$DIMTOLJ
 70
     0
  9
$DIMTZIN
 70
     8
  9
$DIMALTZ
 70
     0
  9
$DIMALTTZ
 70
     0
  9
$DIMUPT
 70
     0
  9
$DIMDEC
 70
     2
  9
$DIMTDEC
 70
     2
  9
$DIMALTU
 70
     2
  9
$DIMALTTD
 70
     3
  9
$DIMTXSTY
  7
Standard
  9
$DIMAUNIT
 70
     0
  9
$DIMADEC
 70
     0
  9
$DIMALTRND
 40
0.0
  9
$DIMAZIN
 70
     0
  9
$DIMDSEP
 70
    44
  9
$DIMATFIT
 70
     3
  9
$DIMFRAC
 70
     0
  9
$DIMLDRBLK
  1

  9
$DIMLUNIT
 70
     2
  9
$DIMLWD
 70
    -2
  9
$DIMLWE
 70
    -2
  9
$DIMTMOVE
 70
     0
  9
$DIMFXL
 40
1.0
  9
$DIMFXLON
 70
     0
  9
$DIMJOGANG
 40
0.7853981633974483
  9
$DIMTFILL
 70
     0
  9
$DIMTFILLCLR
 70
     0
  9
$DIMARCSYM
 70
     0
  9
$DIMLTYPE
  6

  9
$DIMLTEX1
  6

  9
$DIMLTEX2
  6

  9
$DIMTXTDIRECTION
 70
     0
  9
$LUNITS
 70
     2
  9
$LUPREC
 70
     4
  9
$SKETCHINC
 40
1.0
  9
$FILLETRAD
 40
10.0
  9
$AUNITS
 70
     0
  9
$AUPREC
 70
     0
  9
$MENU
  1
.
  9
$ELEVATION
 40
0.0
  9
$PELEVATION
 40
0.0
  9
$THICKNESS
 40
0.0
  9
$LIMCHECK
 70
     0
  9
$CHAMFERA
 40
10.0
  9
$CHAMFERB
 40
10.0
  9
$CHAMFERC
 40
20.0
  9
$CHAMFERD
 40
0.0
  9
$SKPOLY
 70
     0
  9
$TDCREATE
 40
2456785.995855174
  9
$TDUCREATE
 40
2456785.829188507
  9
$TDUPDATE
 40
2456785.995856921
  9
$TDUUPDATE
 40
2456785.829190255
  9
$TDINDWG
 40
0.0000000116
  9
$TDUSRTIMER
 40
0.0000000116
  9
$USRTIMER
 70
     1
  9
$ANGBASE
 50
0.0
  9
$ANGDIR
 70
     0
  9
$PDMODE
 70
     0
  9
$PDSIZE
 40
0.0
  9
$PLINEWID
 40
0.0
  9
$SPLFRAME
 70
     0
  9
$SPLINETYPE
 70
     6
  9
$SPLINESEGS
 70
     8
  9
$HANDSEED
  5
19C
  9
$SURFTAB1
 70
     6
  9
$SURFTAB2
 70
     6
  9
$SURFTYPE
 70
     6
  9
$SURFU
 70
     6
  9
$SURFV
 70
     6
  9
$UCSBASE
  2

  9
$UCSNAME
  2

  9
$UCSORG
 10
0.0
 20
0.0
 30
0.0
  9
$UCSXDIR
 10
1.0
 20
0.0
 30
0.0
  9
$UCSYDIR
 10
0.0
 20
1.0
 30
0.0
  9
$UCSORTHOREF
  2

  9
$UCSORTHOVIEW
 70
     0
  9
$UCSORGTOP
 10
0.0
 20
0.0
 30
0.0
  9
$UCSORGBOTTOM
 10
0.0
 20
0.0
 30
0.0
  9
$UCSORGLEFT
 10
0.0
 20
0.0
 30
0.0
  9
$UCSORGRIGHT
 10
0.0
 20
0.0
 30
0.0
  9
$UCSORGFRONT
 10
0.0
 20
0.0
 30
0.0
  9
$UCSORGBACK
 10
0.0
 20
0.0
 30
0.0
  9
$PUCSBASE
  2

  9
$PUCSNAME
  2

  9
$PUCSORG
 10
0.0
 20
0.0
 30
0.0
  9
$PUCSXDIR
 10
1.0
 20
0.0
 30
0.0
  9
$PUCSYDIR
 10
0.0
 20
1.0
 30
0.0
  9
$PUCSORTHOREF
  2

  9
$PUCSORTHOVIEW
 70
     0
  9
$PUCSORGTOP
 10
0.0
 20
0.0
 30
0.0
  9
$PUCSORGBOTTOM
 10
0.0
 20
0.0
 30
0.0
  9
$PUCSORGLEFT
 10
0.0
 20
0.0
 30
0.0
  9
$PUCSORGRIGHT
 10
0.0
 20
0.0
 30
0.0
  9
$PUCSORGFRONT
 10
0.0
 20
0.0
 30
0.0
  9
$PUCSORGBACK
 10
0.0
 20
0.0
 30
0.0
  9
$USERI1
 70
     0
  9
$USERI2
 70
     0
  9
$USERI3
 70
     0
  9
$USERI4
 70
     0
  9
$USERI5
 70
     0
  9
$USERR1
 40
0.0
  9
$USERR2
 40
0.0
  9
$USERR3
 40
0.0
  9
$USERR4
 40
0.0
  9
$USERR5
 40
0.0
  9
$WORLDVIEW
 70
     1
  9
$SHADEDGE
 70
     3
  9
$SHADEDIF
 70
    70
  9
$TILEMODE
 70
     1
  9
$MAXACTVP
 70
    64
  9
$PINSBASE
 10
0.0
 20
0.0
 30
0.0
  9
$PLIMCHECK
 70
     0
  9
$PEXTMIN
 10
1.000000000000000E+20
 20
1.000000000000000E+20
 30
1.000000000000000E+20
  9
$PEXTMAX
 10
-1.000000000000000E+20
 20
-1.000000000000000E+20
 30
-1.000000000000000E+20
  9
$PLIMMIN
 10
0.0
 20
0.0
  9
$PLIMMAX
 10
420.0
 20
297.0
  9
$UNITMODE
 70
     0
  9
$VISRETAIN
 70
     1
  9
$PLINEGEN
 70
     0
  9
$PSLTSCALE
 70
     1
  9
$TREEDEPTH
 70
  3020
  9
$CMLSTYLE
  2
Standard
  9
$CMLJUST
 70
     0
  9
$CMLSCALE
 40
20.0
  9
$PROXYGRAPHICS
 70
     1
  9
$MEASUREMENT
 70
     1
  9
$CELWEIGHT
370
    -1
  9
$ENDCAPS
280
     0
  9
$JOINSTYLE
280
     0
  9
$LWDISPLAY
290
     0
  9
$INSUNITS
 70
     4
  9
$HYPERLINKBASE
  1

  9
$STYLESHEET
  1

  9
$XEDIT
290
     1
  9
$CEPSNTYPE
380
     0
  9
$PSTYLEMODE
290
     1
  9
$FINGERPRINTGUID
  2
{69657BCC-535D-4438-8D22-A7A6175A7B59}
  9
$VERSIONGUID
  2
{FAEB1C32-E019-11D5-929B-00C0DF256EC4}
  9
$EXTNAMES
290
     1
  9
$PSVPSCALE
 40
0.0
  9
$OLESTARTUP
290
     0
  9
$SORTENTS
280
   127
  9
$INDEXCTL
280
     0
  9
$HIDETEXT
280
     1
  9
$XCLIPFRAME
280
     2
  9
$HALOGAP
280
     0
  9
$OBSCOLOR
 70
   257
  9
$OBSLTYPE
280
     0
  9
$INTERSECTIONDISPLAY
280
     0
  9
$INTERSECTIONCOLOR
 70
   257
  9
$DIMASSOC
280
     2
  9
$PROJECTNAME
  1

  9
$CAMERADISPLAY
290
     0
  9
$LENSLENGTH
 40
50.0
  9
$CAMERAHEIGHT
 40
0.0
  9
$STEPSPERSEC
 40
2.0
  9
$STEPSIZE
 40
6.0
  9
$3DDWFPREC
 40
2.0
  9
$PSOLWIDTH
 40
5.0
  9
$PSOLHEIGHT
 40
80.0
  9
$LOFTANG1
 40
1.570796326794897
  9
$LOFTANG2
 40
1.570796326794897
  9
$LOFTMAG1
 40
0.0
  9
$LOFTMAG2
 40
0.0
  9
$LOFTPARAM
 70
     7
  9
$LOFTNORMALS
280
     1
  9
$LATITUDE
 40
37.795
  9
$LONGITUDE
 40
-122.394
  9
$NORTHDIRECTION
 40
0.0
  9
$TIMEZONE
 70
 -8000
  9
$LIGHTGLYPHDISPLAY
280
     1
  9
$TILEMODELIGHTSYNCH
280
     1
  9
$CMATERIAL
347
3C
  9
$SOLIDHIST
280
     1
  9
$SHOWHIST
280
     1
  9
$DWFFRAME
280
     2
  9
$DGNFRAME
280
     2
  9
$REALWORLDSCALE
290
     1
  9
$INTERFERECOLOR
 62
   256
  9
$CSHADOW
280
     0
  9
$SHADOWPLANELOCATION
 40
0.0
  0
ENDSEC
  0
SECTION
  2
CLASSES
  0
CLASS
  1
ACDBDICTIONARYWDFLT
  2
AcDbDictionaryWithDefault
  3
ObjectDBX Classes
 90
        0
 91
        4
280
     0
281
     0
  0
CLASS
  1
VISUALSTYLE
  2
AcDbVisualStyle
  3
ObjectDBX Classes
 90
     4095
 91
        4
280
     0
281
     0
  0
CLASS
  1
MATERIAL
  2
AcDbMaterial
  3
ObjectDBX Classes
 90
     1153
 91
        4
280
     0
281
     0
  0
CLASS
  1
SUN
  2
AcDbSun
  3
SCENEOE
 90
     1024
 91
        4
280
     0
281
     0
  0
CLASS
  1
SCALE
  2
AcDbScale
  3
ObjectDBX Classes
 90
     1153
 91
        4
280
     0
281
     0
  0
CLASS
  1
DICTIONARYVAR
  2
AcDbDictionaryVar
  3
ObjectDBX Classes
 90
        0
 91
        4
280
     0
281
     0
  0
ENDSEC
  0
SECTION
  2
TABLES
  0
TABLE
  2
VPORT
  5
8
330
0
100
AcDbSymbolTable
 70
     1
  0
VPORT
  5
29
330
8
100
AcDbSymbolTableRecord
100
AcDbViewportTableRecord
  2
*Active
 70
     0
 10
0.0
 20
0.0
 11
1.0
 21
1.0
 12
17.78000000000003
 22
11.43000000000001
 13
0.0
 23
0.0
 14
10.0
 24
10.0
 15
10.0
 25
10.0
 16
0.0
 26
0.0
 36
1.0
 17
0.0
 27
0.0
 37
0.0
 40
29.5188
 41
1.438838977194199
 42
50.0
 43
0.0
 44
0.0
 50
0.0
 51
0.0
 71
     0
 72
   100
 73
     1
 74
     3
 75
     0
 76
     0
 77
     0
 78
     0
281
     0
 65
     1
110
0.0
120
0.0
130
0.0
111
1.0
121
0.0
131
0.0
112
0.0
122
1.0
132
0.0
 79
     0
146
0.0
 60
     3
 61
     5
292
     1
282
     1
141
0.0
142
0.0
 63
   250
361
3F
  0
ENDTAB
  0
TABLE
  2
LTYPE
  5
5
330
0
100
AcDbSymbolTable
 70
     3
  0
LTYPE
  5
14
330
5
100
AcDbSymbolTableRecord
100
AcDbLinetypeTableRecord
  2
ByBlock
 70
     0
  3

 72
    65
 73
     0
 40
0.0
  0
LTYPE
  5
15
330
5
100
AcDbSymbolTableRecord
100
AcDbLinetypeTableRecord
  2
ByLayer
 70
     0
  3

 72
    65
 73
     0
 40
0.0
  0
LTYPE
  5
16
330
5
100
AcDbSymbolTableRecord
100
AcDbLinetypeTableRecord
  2
Continuous
 70
     0
  3
Solid line
 72
    65
 73
     0
 40
0.0
  0
LTYPE
  5
43
330
5
100
AcDbSymbolTableRecord
100
AcDbLinetypeTableRecord
  2
K5LT_THIN
 70
     0
  3

 72
    65
 73
     0
 40
0.0
  0
LTYPE
  5
A5
330
5
100
AcDbSymbolTableRecord
100
AcDbLinetypeTableRecord
  2
K5LT_BASIC
 70
     0
  3

 72
    65
 73
     0
 40
0.0
  0
ENDTAB
  0
TABLE
  2
LAYER
  5
2
330
0
100
AcDbSymbolTable
 70
     2
  0
LAYER
  5
10
330
2
100
AcDbSymbolTableRecord
100
AcDbLayerTableRecord
  2
0
 70
     0
 62
     7
  6
Continuous
370
    -3
390
F
347
3E
  0
LAYER
  5
41
330
2
100
AcDbSymbolTableRecord
100
AcDbLayerTableRecord
  2
Системный слой
 70
     0
 62
     7
  6
Continuous
370
    -3
390
F
347
3E
  0
ENDTAB
  0
TABLE
  2
STYLE
  5
3
330
0
100
AcDbSymbolTable
 70
     1
  0
STYLE
  5
11
330
3
100
AcDbSymbolTableRecord
100
AcDbTextStyleTableRecord
  2
Standard
 70
     0
 40
0.0
 41
1.0
 50
0.0
 71
     0
 42
2.5
  3
txt
  4

  0
ENDTAB
  0
TABLE
  2
VIEW
  5
6
330
0
100
AcDbSymbolTable
 70
     0
  0
ENDTAB
  0
TABLE
  2
UCS
  5
7
330
0
100
AcDbSymbolTable
 70
     0
  0
ENDTAB
  0
TABLE
  2
APPID
  5
9
330
0
100
AcDbSymbolTable
 70
     2
  0
APPID
  5
12
330
9
100
AcDbSymbolTableRecord
100
AcDbRegAppTableRecord
  2
ACAD
 70
     0
  0
APPID
  5
40
330
9
100
AcDbSymbolTableRecord
100
AcDbRegAppTableRecord
  2
KOMPAS
 70
     0
  0
ENDTAB
  0
TABLE
  2
DIMSTYLE
  5
A
330
0
100
AcDbSymbolTable
 70
     1
100
AcDbDimStyleTable
  0
DIMSTYLE
105
27
330
A
100
AcDbSymbolTableRecord
100
AcDbDimStyleTableRecord
  2
ISO-25
 70
     0
 41
2.5
 42
0.625
 43
3.75
 44
1.25
 73
     0
 74
     0
 77
     1
 78
     8
140
2.5
141
2.5
143
0.03937007874016
147
0.625
171
     3
172
     1
178
     0
271
     2
272
     2
274
     3
278
    44
283
     0
284
     8
340
11
  0
ENDTAB
  0
TABLE
  2
BLOCK_RECORD
  5
1
330
0
100
AcDbSymbolTable
 70
    15
  0
BLOCK_RECORD
  5
1F
330
1
100
AcDbSymbolTableRecord
100
AcDbBlockTableRecord
  2
*Model_Space
340
22
 70
     0
280
     1
281
     0
  0
BLOCK_RECORD
  5
1B
330
1
100
AcDbSymbolTableRecord
100
AcDbBlockTableRecord
  2
*Paper_Space
340
1E
 70
     0
280
     1
281
     0
  0
BLOCK_RECORD
  5
23
330
1
100
AcDbSymbolTableRecord
100
AcDbBlockTableRecord
  2
*Paper_Space0
340
26
 70
     0
280
     1
281
     0
  0
BLOCK_RECORD
  5
42
330
1
100
AcDbSymbolTableRecord
100
AcDbBlockTableRecord
  2
KDIMARROW_00
340
0
 70
     0
280
     1
281
     0
  0
BLOCK_RECORD
  5
47
330
1
100
AcDbSymbolTableRecord
100
AcDbBlockTableRecord
  2
KDIMARROW_01
340
0
 70
     0
280
     1
281
     0
  0
BLOCK_RECORD
  5
50
330
1
100
AcDbSymbolTableRecord
100
AcDbBlockTableRecord
  2
KDIMARROW_02
340
0
 70
     0
280
     1
281
     0
  0
BLOCK_RECORD
  5
5A
330
1
100
AcDbSymbolTableRecord
100
AcDbBlockTableRecord
  2
KDIMARROW_03
340
0
 70
     0
280
     1
281
     0
  0
BLOCK_RECORD
  5
60
330
1
100
AcDbSymbolTableRecord
100
AcDbBlockTableRecord
  2
KDIMARROW_04
340
0
 70
     0
280
     1
281
     0
  0
BLOCK_RECORD
  5
66
330
1
100
AcDbSymbolTableRecord
100
AcDbBlockTableRecord
  2
KDIMARROW_05
340
0
 70
     0
280
     1
281
     0
  0
BLOCK_RECORD
  5
6F
330
1
100
AcDbSymbolTableRecord
100
AcDbBlockTableRecord
  2
KDIMARROW_06
340
0
 70
     0
280
     1
281
     0
  0
BLOCK_RECORD
  5
79
330
1
100
AcDbSymbolTableRecord
100
AcDbBlockTableRecord
  2
KDIMARROW_07
340
0
 70
     0
280
     1
281
     0
  0
BLOCK_RECORD
  5
7F
330
1
100
AcDbSymbolTableRecord
100
AcDbBlockTableRecord
  2
KDIMARROW_08
340
0
 70
     0
280
     1
281
     0
  0
BLOCK_RECORD
  5
86
330
1
100
AcDbSymbolTableRecord
100
AcDbBlockTableRecord
  2
KDIMARROW_09
340
0
 70
     0
280
     1
281
     0
  0
BLOCK_RECORD
  5
8C
330
1
100
AcDbSymbolTableRecord
100
AcDbBlockTableRecord
  2
KDIMARROW_10
340
0
 70
     0
280
     1
281
     0
  0
BLOCK_RECORD
  5
93
330
1
100
AcDbSymbolTableRecord
100
AcDbBlockTableRecord
  2
KDIMARROW_11
340
0
 70
     0
280
     1
281
     0
  0
BLOCK_RECORD
  5
99
330
1
100
AcDbSymbolTableRecord
100
AcDbBlockTableRecord
  2
KDIMARROW_12
340
0
 70
     0
280
     1
281
     0
  0
BLOCK_RECORD
  5
9F
330
1
100
AcDbSymbolTableRecord
100
AcDbBlockTableRecord
  2
KDIMARROW_13
340
0
 70
     0
280
     1
281
     0
  0
ENDTAB
  0
ENDSEC
  0
SECTION
  2
BLOCKS
  0
BLOCK
  5
20
330
1F
100
AcDbEntity
  8
0
100
AcDbBlockBegin
  2
*Model_Space
 70
     0
 10
0.0
 20
0.0
 30
0.0
  3
*Model_Space
  1

  0
ENDBLK
  5
21
330
1F
100
AcDbEntity
  8
0
100
AcDbBlockEnd
  0
BLOCK
  5
1C
330
1B
100
AcDbEntity
 67
     1
  8
0
100
AcDbBlockBegin
  2
*Paper_Space
 70
     0
 10
0.0
 20
0.0
 30
0.0
  3
*Paper_Space
  1

  0
ENDBLK
  5
1D
330
1B
100
AcDbEntity
 67
     1
  8
0
100
AcDbBlockEnd
  0
BLOCK
  5
24
330
23
100
AcDbEntity
  8
0
100
AcDbBlockBegin
  2
*Paper_Space0
 70
     0
 10
0.0
 20
0.0
 30
0.0
  3
*Paper_Space0
  1

  0
ENDBLK
  5
25
330
23
100
AcDbEntity
  8
0
100
AcDbBlockEnd
  0
BLOCK
  5
45
330
42
100
AcDbEntity
  8
0
100
AcDbBlockBegin
  2
KDIMARROW_00
 70
     0
 10
0.0
 20
0.0
 30
0.0
  3
KDIMARROW_00
  1

  0
LINE
  5
44
330
42
100
AcDbEntity
  8
0
  6
K5LT_THIN
 62
     0
370
    18
100
AcDbLine
 10
0.0
 20
0.0
 30
0.0
 11
-1.0
 21
0.0
 31
0.0
  0
ENDBLK
  5
46
330
42
100
AcDbEntity
  8
0
100
AcDbBlockEnd
  0
BLOCK
  5
4E
330
47
100
AcDbEntity
  8
0
100
AcDbBlockBegin
  2
KDIMARROW_01
 70
     0
 10
0.0
 20
0.0
 30
0.0
  3
KDIMARROW_01
  1

  0
LINE
  5
48
330
47
100
AcDbEntity
  8
0
  6
K5LT_THIN
 62
     0
370
    18
100
AcDbLine
 10
0.0
 20
0.0
 30
0.0
 11
-5.0
 21
-0.6582624912261956
 31
0.0
  0
LINE
  5
49
330
47
100
AcDbEntity
  8
0
  6
K5LT_THIN
 62
     0
370
    18
100
AcDbLine
 10
-5.0
 20
-0.6582624912261956
 30
0.0
 11
-4.5
 21
0.0000000000000006
 31
0.0
  0
LINE
  5
4A
330
47
100
AcDbEntity
  8
0
  6
K5LT_THIN
 62
     0
370
    18
100
AcDbLine
 10
-4.5
 20
0.0000000000000006
 30
0.0
 11
-5.0
 21
0.658262491226197
 31
0.0
  0
LINE
  5
4B
330
47
100
AcDbEntity
  8
0
  6
K5LT_THIN
 62
     0
370
    18
100
AcDbLine
 10
-5.0
 20
0.658262491226197
 30
0.0
 11
0.0
 21
0.0
 31
0.0
  0
HATCH
  5
4C
330
47
100
AcDbEntity
  8
0
 62
     0
100
AcDbHatch
 10
0.0
 20
0.0
 30
0.0
210
0.0
220
0.0
230
1.0
  2
SOLID
 70
     1
 71
     0
 91
        1
 92
        1
 93
        4
 72
     1
 10
0.0
 20
0.0
 11
-5.0
 21
0.658262491226197
 72
     1
 10
-5.0
 20
0.658262491226197
 11
-4.5
 21
0.0000000000000006
 72
     1
 10
-4.5
 20
0.0000000000000006
 11
-5.0
 21
-0.6582624912261956
 72
     1
 10
-5.0
 20
-0.6582624912261956
 11
0.0
 21
0.0
 97
        0
 75
     0
 76
     1
 98
        0
  0
LINE
  5
4D
330
47
100
AcDbEntity
  8
0
  6
K5LT_THIN
 62
     0
370
    18
100
AcDbLine
 10
0.0
 20
0.0
 30
0.0
 11
-1.0
 21
0.0
 31
0.0
  0
ENDBLK
  5
4F
330
47
100
AcDbEntity
  8
0
100
AcDbBlockEnd
  0
BLOCK
  5
58
330
50
100
AcDbEntity
  8
0
100
AcDbBlockBegin
  2
KDIMARROW_02
 70
     0
 10
0.0
 20
0.0
 30
0.0
  3
KDIMARROW_02
  1

  0
LINE
  5
51
330
50
100
AcDbEntity
  8
0
  6
K5LT_THIN
 62
     0
370
    18
100
AcDbLine
 10
0.0
 20
0.0
 30
0.0
 11
5.0
 21
-0.658262491226197
 31
0.0
  0
LINE
  5
52
330
50
100
AcDbEntity
  8
0
  6
K5LT_THIN
 62
     0
370
    18
100
AcDbLine
 10
5.0
 20
-0.658262491226197
 30
0.0
 11
4.5
 21
-0.0000000000000006
 31
0.0
  0
LINE
  5
53
330
50
100
AcDbEntity
  8
0
  6
K5LT_THIN
 62
     0
370
    18
100
AcDbLine
 10
4.5
 20
-0.0000000000000006
 30
0.0
 11
5.0
 21
0.6582624912261956
 31
0.0
  0
LINE
  5
54
330
50
100
AcDbEntity
  8
0
  6
K5LT_THIN
 62
     0
370
    18
100
AcDbLine
 10
5.0
 20
0.6582624912261956
 30
0.0
 11
0.0
 21
0.0
 31
0.0
  0
LINE
  5
55
330
50
100
AcDbEntity
  8
0
  6
K5LT_THIN
 62
     0
370
    18
100
AcDbLine
 10
0.0
 20
0.0
 30
0.0
 11
7.0
 21
-0.0000000000000009
 31
0.0
  0
HATCH
  5
56
330
50
100
AcDbEntity
  8
0
 62
     0
100
AcDbHatch
 10
0.0
 20
0.0
 30
0.0
210
0.0
220
0.0
230
1.0
  2
SOLID
 70
     1
 71
     0
 91
        1
 92
        1
 93
        4
 72
     1
 10
4.5
 20
-0.0000000000000006
 11
5.0
 21
0.6582624912261956
 72
     1
 10
5.0
 20
0.6582624912261956
 11
0.0
 21
0.0
 72
     1
 10
0.0
 20
0.0
 11
5.0
 21
-0.658262491226197
 72
     1
 10
5.0
 20
-0.658262491226197
 11
4.5
 21
-0.0000000000000006
 97
        0
 75
     0
 76
     1
 98
        0
  0
LINE
  5
57
330
50
100
AcDbEntity
  8
0
  6
K5LT_THIN
 62
     0
370
    18
100
AcDbLine
 10
0.0
 20
0.0
 30
0.0
 11
-1.0
 21
0.0
 31
0.0
  0
ENDBLK
  5
59
330
50
100
AcDbEntity
  8
0
100
AcDbBlockEnd
  0
BLOCK
  5
5E
330
5A
100
AcDbEntity
  8
0
100
AcDbBlockBegin
  2
KDIMARROW_03
 70
     0
 10
0.0
 20
0.0
 30
0.0
  3
KDIMARROW_03
  1

  0
LINE
  5
5B
330
5A
100
AcDbEntity
  8
0
  6
K5LT_THIN
 62
     0
370
    18
100
AcDbLine
 10
-1.060500025749207
 20
-1.060500025749206
 30
0.0
 11
1.060500025749207
 21
1.060500025749206
 31
0.0
  0
LINE
  5
5C
330
5A
100
AcDbEntity
  8
0
  6
K5LT_THIN
 62
     0
370
    18
100
AcDbLine
 10
0.0
 20
0.0
 30
0.0
 11
2.0
 21
-0.0000000000000002
 31
0.0
  0
LINE
  5
5D
330
5A
100
AcDbEntity
  8
0
  6
K5LT_THIN
 62
     0
370
    18
100
AcDbLine
 10
0.0
 20
0.0
 30
0.0
 11
-1.0
 21
0.0
 31
0.0
  0
ENDBLK
  5
5F
330
5A
100
AcDbEntity
  8
0
100
AcDbBlockEnd
  0
BLOCK
  5
64
330
60
100
AcDbEntity
  8
0
100
AcDbBlockBegin
  2
KDIMARROW_04
 70
     0
 10
0.0
 20
0.0
 30
0.0
  3
KDIMARROW_04
  1

  0
LWPOLYLINE
  5
61
330
60
100
AcDbEntity
  8
0
  6
K5LT_THIN
 62
     7
100
AcDbPolyline
 90
       15
 70
     0
 43
0.18
 10
-0.25
 20
0.0
 10
0.0
 20
-0.25
 10
0.25
 20
0.0
 10
0.0
 20
0.25
 10
-0.25
 20
0.0
 10
-0.5
 20
0.0000000000000001
 10
-0.0000000000000001
 20
-0.5
 10
0.5
 20
-0.0000000000000001
 10
0.0000000000000001
 20
0.5
 10
-0.5
 20
0.0000000000000001
 10
-0.75
 20
0.0000000000000001
 10
-0.0000000000000001
 20
-0.75
 10
0.75
 20
-0.0000000000000001
 10
0.0000000000000001
 20
0.75
 10
-0.75
 20
0.0000000000000001
  0
LWPOLYLINE
  5
62
330
60
100
AcDbEntity
  8
0
  6
K5LT_THIN
 62
     7
100
AcDbPolyline
 90
       15
 70
     0
 43
0.18
 10
-0.25
 20
0.0
 10
0.0
 20
-0.25
 10
0.25
 20
0.0
 10
0.0
 20
0.25
 10
-0.25
 20
0.0
 10
-0.5
 20
0.0000000000000001
 10
-0.0000000000000001
 20
-0.5
 10
0.5
 20
-0.0000000000000001
 10
0.0000000000000001
 20
0.5
 10
-0.5
 20
0.0000000000000001
 10
-0.75
 20
0.0000000000000001
 10
-0.0000000000000001
 20
-0.75
 10
0.75
 20
-0.0000000000000001
 10
0.0000000000000001
 20
0.75
 10
-0.75
 20
0.0000000000000001
  0
LINE
  5
63
330
60
100
AcDbEntity
  8
0
  6
K5LT_THIN
 62
     0
370
    18
100
AcDbLine
 10
0.0
 20
0.0
 30
0.0
 11
-1.0
 21
0.0
 31
0.0
  0
ENDBLK
  5
65
330
60
100
AcDbEntity
  8
0
100
AcDbBlockEnd
  0
BLOCK
  5
6D
330
66
100
AcDbEntity
  8
0
100
AcDbBlockBegin
  2
KDIMARROW_05
 70
     0
 10
0.0
 20
0.0
 30
0.0
  3
KDIMARROW_05
  1

  0
LINE
  5
67
330
66
100
AcDbEntity
  8
0
  6
K5LT_THIN
 62
     0
370
    18
100
AcDbLine
 10
0.0
 20
0.0
 30
0.0
 11
-5.0
 21
-0.6582624912261956
 31
0.0
  0
LINE
  5
68
330
66
100
AcDbEntity
  8
0
  6
K5LT_THIN
 62
     0
370
    18
100
AcDbLine
 10
-5.0
 20
-0.6582624912261956
 30
0.0
 11
-5.0
 21
0.0000000000000006
 31
0.0
  0
LINE
  5
69
330
66
100
AcDbEntity
  8
0
  6
K5LT_THIN
 62
     0
370
    18
100
AcDbLine
 10
-5.0
 20
0.0000000000000006
 30
0.0
 11
-5.0
 21
0.658262491226197
 31
0.0
  0
LINE
  5
6A
330
66
100
AcDbEntity
  8
0
  6
K5LT_THIN
 62
     0
370
    18
100
AcDbLine
 10
-5.0
 20
0.658262491226197
 30
0.0
 11
0.0
 21
0.0
 31
0.0
  0
HATCH
  5
6B
330
66
100
AcDbEntity
  8
0
 62
     0
100
AcDbHatch
 10
0.0
 20
0.0
 30
0.0
210
0.0
220
0.0
230
1.0
  2
SOLID
 70
     1
 71
     0
 91
        1
 92
        1
 93
        4
 72
     1
 10
0.0
 20
0.0
 11
-5.0
 21
0.658262491226197
 72
     1
 10
-5.0
 20
0.658262491226197
 11
-5.0
 21
0.0000000000000007
 72
     1
 10
-5.0
 20
0.0000000000000006
 11
-5.0
 21
-0.6582624912261956
 72
     1
 10
-5.0
 20
-0.6582624912261956
 11
0.0
 21
0.0
 97
        0
 75
     0
 76
     1
 98
        0
  0
LINE
  5
6C
330
66
100
AcDbEntity
  8
0
  6
K5LT_THIN
 62
     0
370
    18
100
AcDbLine
 10
0.0
 20
0.0
 30
0.0
 11
-1.0
 21
0.0
 31
0.0
  0
ENDBLK
  5
6E
330
66
100
AcDbEntity
  8
0
100
AcDbBlockEnd
  0
BLOCK
  5
77
330
6F
100
AcDbEntity
  8
0
100
AcDbBlockBegin
  2
KDIMARROW_06
 70
     0
 10
0.0
 20
0.0
 30
0.0
  3
KDIMARROW_06
  1

  0
LINE
  5
70
330
6F
100
AcDbEntity
  8
0
  6
K5LT_THIN
 62
     0
370
    18
100
AcDbLine
 10
0.0
 20
0.0
 30
0.0
 11
5.0
 21
-0.658262491226197
 31
0.0
  0
LINE
  5
71
330
6F
100
AcDbEntity
  8
0
  6
K5LT_THIN
 62
     0
370
    18
100
AcDbLine
 10
5.0
 20
-0.658262491226197
 30
0.0
 11
5.0
 21
-0.0000000000000006
 31
0.0
  0
LINE
  5
72
330
6F
100
AcDbEntity
  8
0
  6
K5LT_THIN
 62
     0
370
    18
100
AcDbLine
 10
5.0
 20
-0.0000000000000006
 30
0.0
 11
5.0
 21
0.6582624912261956
 31
0.0
  0
LINE
  5
73
330
6F
100
AcDbEntity
  8
0
  6
K5LT_THIN
 62
     0
370
    18
100
AcDbLine
 10
5.0
 20
0.6582624912261956
 30
0.0
 11
0.0
 21
0.0
 31
0.0
  0
LINE
  5
74
330
6F
100
AcDbEntity
  8
0
  6
K5LT_THIN
 62
     0
370
    18
100
AcDbLine
 10
0.0
 20
0.0
 30
0.0
 11
7.0
 21
-0.0000000000000009
 31
0.0
  0
HATCH
  5
75
330
6F
100
AcDbEntity
  8
0
 62
     0
100
AcDbHatch
 10
0.0
 20
0.0
 30
0.0
210
0.0
220
0.0
230
1.0
  2
SOLID
 70
     1
 71
     0
 91
        1
 92
        1
 93
        4
 72
     1
 10
5.0
 20
-0.0000000000000006
 11
5.0
 21
0.6582624912261956
 72
     1
 10
5.0
 20
0.6582624912261956
 11
0.0
 21
0.0
 72
     1
 10
0.0
 20
0.0
 11
5.0
 21
-0.658262491226197
 72
     1
 10
5.0
 20
-0.658262491226197
 11
5.0
 21
-0.0000000000000007
 97
        0
 75
     0
 76
     1
 98
        0
  0
LINE
  5
76
330
6F
100
AcDbEntity
  8
0
  6
K5LT_THIN
 62
     0
370
    18
100
AcDbLine
 10
0.0
 20
0.0
 30
0.0
 11
-1.0
 21
0.0
 31
0.0
  0
ENDBLK
  5
78
330
6F
100
AcDbEntity
  8
0
100
AcDbBlockEnd
  0
BLOCK
  5
7D
330
79
100
AcDbEntity
  8
0
100
AcDbBlockBegin
  2
KDIMARROW_07
 70
     0
 10
0.0
 20
0.0
 30
0.0
  3
KDIMARROW_07
  1

  0
LINE
  5
7A
330
79
100
AcDbEntity
  8
0
  6
K5LT_THIN
 62
     0
370
    18
100
AcDbLine
 10
0.0
 20
0.0
 30
0.0
 11
-5.0
 21
-0.6582624912261956
 31
0.0
  0
LINE
  5
7B
330
79
100
AcDbEntity
  8
0
  6
K5LT_THIN
 62
     0
370
    18
100
AcDbLine
 10
0.0
 20
0.0
 30
0.0
 11
-5.0
 21
0.658262491226197
 31
0.0
  0
LINE
  5
7C
330
79
100
AcDbEntity
  8
0
  6
K5LT_THIN
 62
     0
370
    18
100
AcDbLine
 10
0.0
 20
0.0
 30
0.0
 11
-1.0
 21
0.0
 31
0.0
  0
ENDBLK
  5
7E
330
79
100
AcDbEntity
  8
0
100
AcDbBlockEnd
  0
BLOCK
  5
84
330
7F
100
AcDbEntity
  8
0
100
AcDbBlockBegin
  2
KDIMARROW_08
 70
     0
 10
0.0
 20
0.0
 30
0.0
  3
KDIMARROW_08
  1

  0
LINE
  5
80
330
7F
100
AcDbEntity
  8
0
  6
K5LT_THIN
 62
     0
370
    18
100
AcDbLine
 10
0.0
 20
0.0
 30
0.0
 11
5.0
 21
-0.658262491226197
 31
0.0
  0
LINE
  5
81
330
7F
100
AcDbEntity
  8
0
  6
K5LT_THIN
 62
     0
370
    18
100
AcDbLine
 10
0.0
 20
0.0
 30
0.0
 11
5.0
 21
0.6582624912261956
 31
0.0
  0
LINE
  5
82
330
7F
100
AcDbEntity
  8
0
  6
K5LT_THIN
 62
     0
370
    18
100
AcDbLine
 10
0.0
 20
0.0
 30
0.0
 11
7.0
 21
-0.0000000000000009
 31
0.0
  0
LINE
  5
83
330
7F
100
AcDbEntity
  8
0
  6
K5LT_THIN
 62
     0
370
    18
100
AcDbLine
 10
0.0
 20
0.0
 30
0.0
 11
-1.0
 21
0.0
 31
0.0
  0
ENDBLK
  5
85
330
7F
100
AcDbEntity
  8
0
100
AcDbBlockEnd
  0
BLOCK
  5
8A
330
86
100
AcDbEntity
  8
0
100
AcDbBlockBegin
  2
KDIMARROW_09
 70
     0
 10
0.0
 20
0.0
 30
0.0
  3
KDIMARROW_09
  1

  0
LINE
  5
87
330
86
100
AcDbEntity
  8
0
  6
K5LT_THIN
 62
     0
370
    18
100
AcDbLine
 10
0.0
 20
0.0
 30
0.0
 11
-2.0
 21
-2.0
 31
0.0
  0
LINE
  5
88
330
86
100
AcDbEntity
  8
0
  6
K5LT_THIN
 62
     0
370
    18
100
AcDbLine
 10
0.0
 20
0.0
 30
0.0
 11
-2.0
 21
2.0
 31
0.0
  0
LINE
  5
89
330
86
100
AcDbEntity
  8
0
  6
K5LT_THIN
 62
     0
370
    18
100
AcDbLine
 10
0.0
 20
0.0
 30
0.0
 11
-1.0
 21
0.0
 31
0.0
  0
ENDBLK
  5
8B
330
86
100
AcDbEntity
  8
0
100
AcDbBlockEnd
  0
BLOCK
  5
91
330
8C
100
AcDbEntity
  8
0
100
AcDbBlockBegin
  2
KDIMARROW_10
 70
     0
 10
0.0
 20
0.0
 30
0.0
  3
KDIMARROW_10
  1

  0
LINE
  5
8D
330
8C
100
AcDbEntity
  8
0
  6
K5LT_THIN
 62
     0
370
    18
100
AcDbLine
 10
0.0
 20
0.0
 30
0.0
 11
2.0
 21
-2.0
 31
0.0
  0
LINE
  5
8E
330
8C
100
AcDbEntity
  8
0
  6
K5LT_THIN
 62
     0
370
    18
100
AcDbLine
 10
0.0
 20
0.0
 30
0.0
 11
2.0
 21
2.0
 31
0.0
  0
LINE
  5
8F
330
8C
100
AcDbEntity
  8
0
  6
K5LT_THIN
 62
     0
370
    18
100
AcDbLine
 10
0.0
 20
0.0
 30
0.0
 11
4.0
 21
-0.0000000000000005
 31
0.0
  0
LINE
  5
90
330
8C
100
AcDbEntity
  8
0
  6
K5LT_THIN
 62
     0
370
    18
100
AcDbLine
 10
0.0
 20
0.0
 30
0.0
 11
-1.0
 21
0.0
 31
0.0
  0
ENDBLK
  5
92
330
8C
100
AcDbEntity
  8
0
100
AcDbBlockEnd
  0
BLOCK
  5
97
330
93
100
AcDbEntity
  8
0
100
AcDbBlockBegin
  2
KDIMARROW_11
 70
     0
 10
0.0
 20
0.0
 30
0.0
  3
KDIMARROW_11
  1

  0
CIRCLE
  5
94
330
93
100
AcDbEntity
  8
0
  6
K5LT_THIN
 62
     0
370
    18
100
AcDbCircle
 10
0.0
 20
0.0
 30
0.0
 40
2.5
  0
CIRCLE
  5
95
330
93
100
AcDbEntity
  8
0
  6
K5LT_THIN
 62
     0
370
    18
100
AcDbCircle
 10
0.0
 20
0.0
 30
0.0
 40
2.5
  0
LINE
  5
96
330
93
100
AcDbEntity
  8
0
  6
K5LT_THIN
 62
     0
370
    18
100
AcDbLine
 10
0.0
 20
0.0
 30
0.0
 11
-1.0
 21
0.0
 31
0.0
  0
ENDBLK
  5
98
330
93
100
AcDbEntity
  8
0
100
AcDbBlockEnd
  0
BLOCK
  5
9D
330
99
100
AcDbEntity
  8
0
100
AcDbBlockBegin
  2
KDIMARROW_12
 70
     0
 10
0.0
 20
0.0
 30
0.0
  3
KDIMARROW_12
  1

  0
CIRCLE
  5
9A
330
99
100
AcDbEntity
  8
0
  6
K5LT_THIN
 62
     0
370
    18
100
AcDbCircle
 10
0.0
 20
0.0
 30
0.0
 40
1.5
  0
CIRCLE
  5
9B
330
99
100
AcDbEntity
  8
0
  6
K5LT_THIN
 62
     0
370
    18
100
AcDbCircle
 10
0.0
 20
0.0
 30
0.0
 40
1.5
  0
LINE
  5
9C
330
99
100
AcDbEntity
  8
0
  6
K5LT_THIN
 62
     0
370
    18
100
AcDbLine
 10
0.0
 20
0.0
 30
0.0
 11
-1.0
 21
0.0
 31
0.0
  0
ENDBLK
  5
9E
330
99
100
AcDbEntity
  8
0
100
AcDbBlockEnd
  0
BLOCK
  5
A3
330
9F
100
AcDbEntity
  8
0
100
AcDbBlockBegin
  2
KDIMARROW_13
 70
     0
 10
0.0
 20
0.0
 30
0.0
  3
KDIMARROW_13
  1

  0
LINE
  5
A0
330
9F
100
AcDbEntity
  8
0
  6
K5LT_THIN
 62
     0
370
    18
100
AcDbLine
 10
-1.060500025749206
 20
1.060500025749207
 30
0.0
 11
1.060500025749206
 21
-1.060500025749207
 31
0.0
  0
LINE
  5
A1
330
9F
100
AcDbEntity
  8
0
  6
K5LT_THIN
 62
     0
370
    18
100
AcDbLine
 10
0.0
 20
0.0
 30
0.0
 11
2.0
 21
-0.0000000000000002
 31
0.0
  0
LINE
  5
A2
330
9F
100
AcDbEntity
  8
0
  6
K5LT_THIN
 62
     0
370
    18
100
AcDbLine
 10
0.0
 20
0.0
 30
0.0
 11
-1.0
 21
0.0
 31
0.0
  0
ENDBLK
  5
A4
330
9F
100
AcDbEntity
  8
0
100
AcDbBlockEnd
  0
ENDSEC
  0
SECTION
  2
ENTITIES
  0
CIRCLE
  5
A6
330
1F
100
AcDbEntity
  8
0
  6
K5LT_BASIC
 62
     5
420
      255
370
    60
100
AcDbCircle
 10
0.0000000000000002
 20
2.54
 30
0.0
 40
0.5
  0
CIRCLE
  5
A7
330
1F
100
AcDbEntity
  8
0
  6
K5LT_BASIC
 62
     5
420
      255
370
    60
100
AcDbCircle
 10
2.54
 20
2.54
 30
0.0
 40
0.5
  0
CIRCLE
  5
A8
330
1F
100
AcDbEntity
  8
0
  6
K5LT_BASIC
 62
     5
420
      255
370
    60
100
AcDbCircle
 10
-2.54
 20
2.54
 30
0.0
 40
0.5
  0
CIRCLE
  5
A9
330
1F
100
AcDbEntity
  8
0
  6
K5LT_BASIC
 62
     5
420
      255
370
    60
100
AcDbCircle
 10
-2.54
 20
0.0
 30
0.0
 40
0.5
  0
CIRCLE
  5
AA
330
1F
100
AcDbEntity
  8
0
  6
K5LT_BASIC
 62
     5
420
      255
370
    60
100
AcDbCircle
 10
0.0
 20
0.0
 30
0.0
 40
0.5
  0
CIRCLE
  5
AB
330
1F
100
AcDbEntity
  8
0
  6
K5LT_BASIC
 62
     5
420
      255
370
    60
100
AcDbCircle
 10
2.54
 20
0.0
 30
0.0
 40
0.5
  0
CIRCLE
  5
AC
330
1F
100
AcDbEntity
  8
0
  6
K5LT_BASIC
 62
     5
420
      255
370
    60
100
AcDbCircle
 10
2.54
 20
-2.54
 30
0.0
 40
0.5
  0
CIRCLE
  5
AD
330
1F
100
AcDbEntity
  8
0
  6
K5LT_BASIC
 62
     5
420
      255
370
    60
100
AcDbCircle
 10
-0.0000000000000002
 20
-2.54
 30
0.0
 40
0.5
  0
CIRCLE
  5
AE
330
1F
100
AcDbEntity
  8
0
  6
K5LT_BASIC
 62
     5
420
      255
370
    60
100
AcDbCircle
 10
-2.54
 20
-2.54
 30
0.0
 40
0.5
  0
CIRCLE
  5
AF
330
1F
100
AcDbEntity
  8
0
  6
K5LT_BASIC
 62
     5
420
      255
370
    60
100
AcDbCircle
 10
0.0000000000000006
 20
5.08
 30
0.0
 40
0.5
  0
CIRCLE
  5
B0
330
1F
100
AcDbEntity
  8
0
  6
K5LT_BASIC
 62
     5
420
      255
370
    60
100
AcDbCircle
 10
2.54
 20
5.08
 30
0.0
 40
0.5
  0
CIRCLE
  5
B1
330
1F
100
AcDbEntity
  8
0
  6
K5LT_BASIC
 62
     5
420
      255
370
    60
100
AcDbCircle
 10
-2.54
 20
5.08
 30
0.0
 40
0.5
  0
CIRCLE
  5
B2
330
1F
100
AcDbEntity
  8
0
  6
K5LT_BASIC
 62
     5
420
      255
370
    60
100
AcDbCircle
 10
0.000000000000001
 20
7.62
 30
0.0
 40
0.5
  0
CIRCLE
  5
B3
330
1F
100
AcDbEntity
  8
0
  6
K5LT_BASIC
 62
     5
420
      255
370
    60
100
AcDbCircle
 10
2.540000000000001
 20
7.62
 30
0.0
 40
0.5
  0
CIRCLE
  5
B4
330
1F
100
AcDbEntity
  8
0
  6
K5LT_BASIC
 62
     5
420
      255
370
    60
100
AcDbCircle
 10
-2.539999999999999
 20
7.62
 30
0.0
 40
0.5
  0
CIRCLE
  5
B5
330
1F
100
AcDbEntity
  8
0
  6
K5LT_BASIC
 62
     5
420
      255
370
    60
100
AcDbCircle
 10
5.08
 20
2.54
 30
0.0
 40
0.5
  0
CIRCLE
  5
B6
330
1F
100
AcDbEntity
  8
0
  6
K5LT_BASIC
 62
     5
420
      255
370
    60
100
AcDbCircle
 10
7.62
 20
2.54
 30
0.0
 40
0.5
  0
CIRCLE
  5
B7
330
1F
100
AcDbEntity
  8
0
  6
K5LT_BASIC
 62
     5
420
      255
370
    60
100
AcDbCircle
 10
5.08
 20
0.0
 30
0.0
 40
0.5
  0
CIRCLE
  5
B8
330
1F
100
AcDbEntity
  8
0
  6
K5LT_BASIC
 62
     5
420
      255
370
    60
100
AcDbCircle
 10
7.62
 20
0.0
 30
0.0
 40
0.5
  0
CIRCLE
  5
B9
330
1F
100
AcDbEntity
  8
0
  6
K5LT_BASIC
 62
     5
420
      255
370
    60
100
AcDbCircle
 10
7.62
 20
-2.54
 30
0.0
 40
0.5
  0
CIRCLE
  5
BA
330
1F
100
AcDbEntity
  8
0
  6
K5LT_BASIC
 62
     5
420
      255
370
    60
100
AcDbCircle
 10
5.08
 20
-2.54
 30
0.0
 40
0.5
  0
CIRCLE
  5
BB
330
1F
100
AcDbEntity
  8
0
  6
K5LT_BASIC
 62
     5
420
      255
370
    60
100
AcDbCircle
 10
5.080000000000001
 20
5.08
 30
0.0
 40
0.5
  0
CIRCLE
  5
BC
330
1F
100
AcDbEntity
  8
0
  6
K5LT_BASIC
 62
     5
420
      255
370
    60
100
AcDbCircle
 10
7.620000000000001
 20
5.08
 30
0.0
 40
0.5
  0
CIRCLE
  5
BD
330
1F
100
AcDbEntity
  8
0
  6
K5LT_BASIC
 62
     5
420
      255
370
    60
100
AcDbCircle
 10
5.080000000000001
 20
7.62
 30
0.0
 40
0.5
  0
CIRCLE
  5
BE
330
1F
100
AcDbEntity
  8
0
  6
K5LT_BASIC
 62
     5
420
      255
370
    60
100
AcDbCircle
 10
7.620000000000001
 20
7.62
 30
0.0
 40
0.5
  0
CIRCLE
  5
BF
330
1F
100
AcDbEntity
  8
0
  6
K5LT_BASIC
 62
     5
420
      255
370
    60
100
AcDbCircle
 10
10.16
 20
2.54
 30
0.0
 40
0.5
  0
CIRCLE
  5
C0
330
1F
100
AcDbEntity
  8
0
  6
K5LT_BASIC
 62
     5
420
      255
370
    60
100
AcDbCircle
 10
12.7
 20
2.54
 30
0.0
 40
0.5
  0
CIRCLE
  5
C1
330
1F
100
AcDbEntity
  8
0
  6
K5LT_BASIC
 62
     5
420
      255
370
    60
100
AcDbCircle
 10
10.16
 20
0.0
 30
0.0
 40
0.5
  0
CIRCLE
  5
C2
330
1F
100
AcDbEntity
  8
0
  6
K5LT_BASIC
 62
     5
420
      255
370
    60
100
AcDbCircle
 10
12.7
 20
0.0
 30
0.0
 40
0.5
  0
CIRCLE
  5
C3
330
1F
100
AcDbEntity
  8
0
  6
K5LT_BASIC
 62
     5
420
      255
370
    60
100
AcDbCircle
 10
12.7
 20
-2.54
 30
0.0
 40
0.5
  0
CIRCLE
  5
C4
330
1F
100
AcDbEntity
  8
0
  6
K5LT_BASIC
 62
     5
420
      255
370
    60
100
AcDbCircle
 10
10.16
 20
-2.54
 30
0.0
 40
0.5
  0
CIRCLE
  5
C5
330
1F
100
AcDbEntity
  8
0
  6
K5LT_BASIC
 62
     5
420
      255
370
    60
100
AcDbCircle
 10
10.16
 20
5.08
 30
0.0
 40
0.5
  0
CIRCLE
  5
C6
330
1F
100
AcDbEntity
  8
0
  6
K5LT_BASIC
 62
     5
420
      255
370
    60
100
AcDbCircle
 10
12.7
 20
5.08
 30
0.0
 40
0.5
  0
CIRCLE
  5
C7
330
1F
100
AcDbEntity
  8
0
  6
K5LT_BASIC
 62
     5
420
      255
370
    60
100
AcDbCircle
 10
10.16
 20
7.62
 30
0.0
 40
0.5
  0
CIRCLE
  5
C8
330
1F
100
AcDbEntity
  8
0
  6
K5LT_BASIC
 62
     5
420
      255
370
    60
100
AcDbCircle
 10
12.7
 20
7.62
 30
0.0
 40
0.5
  0
CIRCLE
  5
C9
330
1F
100
AcDbEntity
  8
0
  6
K5LT_BASIC
 62
     5
420
      255
370
    60
100
AcDbCircle
 10
15.24
 20
2.54
 30
0.0
 40
0.5
  0
CIRCLE
  5
CA
330
1F
100
AcDbEntity
  8
0
  6
K5LT_BASIC
 62
     5
420
      255
370
    60
100
AcDbCircle
 10
17.78
 20
2.54
 30
0.0
 40
0.5
  0
CIRCLE
  5
CB
330
1F
100
AcDbEntity
  8
0
  6
K5LT_BASIC
 62
     5
420
      255
370
    60
100
AcDbCircle
 10
15.24
 20
0.0
 30
0.0
 40
0.5
  0
CIRCLE
  5
CC
330
1F
100
AcDbEntity
  8
0
  6
K5LT_BASIC
 62
     5
420
      255
370
    60
100
AcDbCircle
 10
17.78
 20
0.0
 30
0.0
 40
0.5
  0
CIRCLE
  5
CD
330
1F
100
AcDbEntity
  8
0
  6
K5LT_BASIC
 62
     5
420
      255
370
    60
100
AcDbCircle
 10
17.78
 20
-2.54
 30
0.0
 40
0.5
  0
CIRCLE
  5
CE
330
1F
100
AcDbEntity
  8
0
  6
K5LT_BASIC
 62
     5
420
      255
370
    60
100
AcDbCircle
 10
15.24
 20
-2.54
 30
0.0
 40
0.5
  0
CIRCLE
  5
CF
330
1F
100
AcDbEntity
  8
0
  6
K5LT_BASIC
 62
     5
420
      255
370
    60
100
AcDbCircle
 10
15.24
 20
5.08
 30
0.0
 40
0.5
  0
CIRCLE
  5
D0
330
1F
100
AcDbEntity
  8
0
  6
K5LT_BASIC
 62
     5
420
      255
370
    60
100
AcDbCircle
 10
17.78
 20
5.08
 30
0.0
 40
0.5
  0
CIRCLE
  5
D1
330
1F
100
AcDbEntity
  8
0
  6
K5LT_BASIC
 62
     5
420
      255
370
    60
100
AcDbCircle
 10
15.24
 20
7.62
 30
0.0
 40
0.5
  0
CIRCLE
  5
D2
330
1F
100
AcDbEntity
  8
0
  6
K5LT_BASIC
 62
     5
420
      255
370
    60
100
AcDbCircle
 10
17.78
 20
7.62
 30
0.0
 40
0.5
  0
CIRCLE
  5
D3
330
1F
100
AcDbEntity
  8
0
  6
K5LT_BASIC
 62
     5
420
      255
370
    60
100
AcDbCircle
 10
20.32
 20
2.54
 30
0.0
 40
0.5
  0
CIRCLE
  5
D4
330
1F
100
AcDbEntity
  8
0
  6
K5LT_BASIC
 62
     5
420
      255
370
    60
100
AcDbCircle
 10
22.86
 20
2.54
 30
0.0
 40
0.5
  0
CIRCLE
  5
D5
330
1F
100
AcDbEntity
  8
0
  6
K5LT_BASIC
 62
     5
420
      255
370
    60
100
AcDbCircle
 10
20.32
 20
0.0
 30
0.0
 40
0.5
  0
CIRCLE
  5
D6
330
1F
100
AcDbEntity
  8
0
  6
K5LT_BASIC
 62
     5
420
      255
370
    60
100
AcDbCircle
 10
22.86
 20
0.0
 30
0.0
 40
0.5
  0
CIRCLE
  5
D7
330
1F
100
AcDbEntity
  8
0
  6
K5LT_BASIC
 62
     5
420
      255
370
    60
100
AcDbCircle
 10
22.86
 20
-2.54
 30
0.0
 40
0.5
  0
CIRCLE
  5
D8
330
1F
100
AcDbEntity
  8
0
  6
K5LT_BASIC
 62
     5
420
      255
370
    60
100
AcDbCircle
 10
20.32
 20
-2.54
 30
0.0
 40
0.5
  0
CIRCLE
  5
D9
330
1F
100
AcDbEntity
  8
0
  6
K5LT_BASIC
 62
     5
420
      255
370
    60
100
AcDbCircle
 10
20.32
 20
5.08
 30
0.0
 40
0.5
  0
CIRCLE
  5
DA
330
1F
100
AcDbEntity
  8
0
  6
K5LT_BASIC
 62
     5
420
      255
370
    60
100
AcDbCircle
 10
22.86
 20
5.08
 30
0.0
 40
0.5
  0
CIRCLE
  5
DB
330
1F
100
AcDbEntity
  8
0
  6
K5LT_BASIC
 62
     5
420
      255
370
    60
100
AcDbCircle
 10
20.32
 20
7.62
 30
0.0
 40
0.5
  0
CIRCLE
  5
DC
330
1F
100
AcDbEntity
  8
0
  6
K5LT_BASIC
 62
     5
420
      255
370
    60
100
AcDbCircle
 10
22.86
 20
7.62
 30
0.0
 40
0.5
  0
CIRCLE
  5
DD
330
1F
100
AcDbEntity
  8
0
  6
K5LT_BASIC
 62
     5
420
      255
370
    60
100
AcDbCircle
 10
25.4
 20
2.54
 30
0.0
 40
0.5
  0
CIRCLE
  5
DE
330
1F
100
AcDbEntity
  8
0
  6
K5LT_BASIC
 62
     5
420
      255
370
    60
100
AcDbCircle
 10
27.94
 20
2.54
 30
0.0
 40
0.5
  0
CIRCLE
  5
DF
330
1F
100
AcDbEntity
  8
0
  6
K5LT_BASIC
 62
     5
420
      255
370
    60
100
AcDbCircle
 10
25.4
 20
0.0
 30
0.0
 40
0.5
  0
CIRCLE
  5
E0
330
1F
100
AcDbEntity
  8
0
  6
K5LT_BASIC
 62
     5
420
      255
370
    60
100
AcDbCircle
 10
27.94
 20
0.0
 30
0.0
 40
0.5
  0
CIRCLE
  5
E1
330
1F
100
AcDbEntity
  8
0
  6
K5LT_BASIC
 62
     5
420
      255
370
    60
100
AcDbCircle
 10
27.94
 20
-2.54
 30
0.0
 40
0.5
  0
CIRCLE
  5
E2
330
1F
100
AcDbEntity
  8
0
  6
K5LT_BASIC
 62
     5
420
      255
370
    60
100
AcDbCircle
 10
25.4
 20
-2.54
 30
0.0
 40
0.5
  0
CIRCLE
  5
E3
330
1F
100
AcDbEntity
  8
0
  6
K5LT_BASIC
 62
     5
420
      255
370
    60
100
AcDbCircle
 10
25.4
 20
5.08
 30
0.0
 40
0.5
  0
CIRCLE
  5
E4
330
1F
100
AcDbEntity
  8
0
  6
K5LT_BASIC
 62
     5
420
      255
370
    60
100
AcDbCircle
 10
27.94
 20
5.08
 30
0.0
 40
0.5
  0
CIRCLE
  5
E5
330
1F
100
AcDbEntity
  8
0
  6
K5LT_BASIC
 62
     5
420
      255
370
    60
100
AcDbCircle
 10
25.4
 20
7.62
 30
0.0
 40
0.5
  0
CIRCLE
  5
E6
330
1F
100
AcDbEntity
  8
0
  6
K5LT_BASIC
 62
     5
420
      255
370
    60
100
AcDbCircle
 10
27.94
 20
7.62
 30
0.0
 40
0.5
  0
CIRCLE
  5
E7
330
1F
100
AcDbEntity
  8
0
  6
K5LT_BASIC
 62
     5
420
      255
370
    60
100
AcDbCircle
 10
30.48
 20
2.54
 30
0.0
 40
0.5
  0
CIRCLE
  5
E8
330
1F
100
AcDbEntity
  8
0
  6
K5LT_BASIC
 62
     5
420
      255
370
    60
100
AcDbCircle
 10
33.02
 20
2.54
 30
0.0
 40
0.5
  0
CIRCLE
  5
E9
330
1F
100
AcDbEntity
  8
0
  6
K5LT_BASIC
 62
     5
420
      255
370
    60
100
AcDbCircle
 10
30.48
 20
0.0
 30
0.0
 40
0.5
  0
CIRCLE
  5
EA
330
1F
100
AcDbEntity
  8
0
  6
K5LT_BASIC
 62
     5
420
      255
370
    60
100
AcDbCircle
 10
33.02
 20
0.0
 30
0.0
 40
0.5
  0
CIRCLE
  5
EB
330
1F
100
AcDbEntity
  8
0
  6
K5LT_BASIC
 62
     5
420
      255
370
    60
100
AcDbCircle
 10
33.02
 20
-2.54
 30
0.0
 40
0.5
  0
CIRCLE
  5
EC
330
1F
100
AcDbEntity
  8
0
  6
K5LT_BASIC
 62
     5
420
      255
370
    60
100
AcDbCircle
 10
30.48
 20
-2.54
 30
0.0
 40
0.5
  0
CIRCLE
  5
ED
330
1F
100
AcDbEntity
  8
0
  6
K5LT_BASIC
 62
     5
420
      255
370
    60
100
AcDbCircle
 10
30.48
 20
5.08
 30
0.0
 40
0.5
  0
CIRCLE
  5
EE
330
1F
100
AcDbEntity
  8
0
  6
K5LT_BASIC
 62
     5
420
      255
370
    60
100
AcDbCircle
 10
33.02
 20
5.08
 30
0.0
 40
0.5
  0
CIRCLE
  5
EF
330
1F
100
AcDbEntity
  8
0
  6
K5LT_BASIC
 62
     5
420
      255
370
    60
100
AcDbCircle
 10
30.48
 20
7.62
 30
0.0
 40
0.5
  0
CIRCLE
  5
F0
330
1F
100
AcDbEntity
  8
0
  6
K5LT_BASIC
 62
     5
420
      255
370
    60
100
AcDbCircle
 10
33.02
 20
7.62
 30
0.0
 40
0.5
  0
CIRCLE
  5
F1
330
1F
100
AcDbEntity
  8
0
  6
K5LT_BASIC
 62
     5
420
      255
370
    60
100
AcDbCircle
 10
35.56
 20
2.54
 30
0.0
 40
0.5
  0
CIRCLE
  5
F2
330
1F
100
AcDbEntity
  8
0
  6
K5LT_BASIC
 62
     5
420
      255
370
    60
100
AcDbCircle
 10
38.1
 20
2.54
 30
0.0
 40
0.5
  0
CIRCLE
  5
F3
330
1F
100
AcDbEntity
  8
0
  6
K5LT_BASIC
 62
     5
420
      255
370
    60
100
AcDbCircle
 10
35.56
 20
0.0
 30
0.0
 40
0.5
  0
CIRCLE
  5
F4
330
1F
100
AcDbEntity
  8
0
  6
K5LT_BASIC
 62
     5
420
      255
370
    60
100
AcDbCircle
 10
38.1
 20
0.0
 30
0.0
 40
0.5
  0
CIRCLE
  5
F5
330
1F
100
AcDbEntity
  8
0
  6
K5LT_BASIC
 62
     5
420
      255
370
    60
100
AcDbCircle
 10
38.1
 20
-2.54
 30
0.0
 40
0.5
  0
CIRCLE
  5
F6
330
1F
100
AcDbEntity
  8
0
  6
K5LT_BASIC
 62
     5
420
      255
370
    60
100
AcDbCircle
 10
35.56
 20
-2.54
 30
0.0
 40
0.5
  0
CIRCLE
  5
F7
330
1F
100
AcDbEntity
  8
0
  6
K5LT_BASIC
 62
     5
420
      255
370
    60
100
AcDbCircle
 10
35.56
 20
5.08
 30
0.0
 40
0.5
  0
CIRCLE
  5
F8
330
1F
100
AcDbEntity
  8
0
  6
K5LT_BASIC
 62
     5
420
      255
370
    60
100
AcDbCircle
 10
38.1
 20
5.08
 30
0.0
 40
0.5
  0
CIRCLE
  5
F9
330
1F
100
AcDbEntity
  8
0
  6
K5LT_BASIC
 62
     5
420
      255
370
    60
100
AcDbCircle
 10
35.56
 20
7.62
 30
0.0
 40
0.5
  0
CIRCLE
  5
FA
330
1F
100
AcDbEntity
  8
0
  6
K5LT_BASIC
 62
     5
420
      255
370
    60
100
AcDbCircle
 10
38.1
 20
7.62
 30
0.0
 40
0.5
  0
CIRCLE
  5
FB
330
1F
100
AcDbEntity
  8
0
  6
K5LT_BASIC
 62
     5
420
      255
370
    60
100
AcDbCircle
 10
0.000000000000001
 20
17.78
 30
0.0
 40
0.5
  0
CIRCLE
  5
FC
330
1F
100
AcDbEntity
  8
0
  6
K5LT_BASIC
 62
     5
420
      255
370
    60
100
AcDbCircle
 10
2.540000000000001
 20
17.78
 30
0.0
 40
0.5
  0
CIRCLE
  5
FD
330
1F
100
AcDbEntity
  8
0
  6
K5LT_BASIC
 62
     5
420
      255
370
    60
100
AcDbCircle
 10
-2.539999999999999
 20
17.78
 30
0.0
 40
0.5
  0
CIRCLE
  5
FE
330
1F
100
AcDbEntity
  8
0
  6
K5LT_BASIC
 62
     5
420
      255
370
    60
100
AcDbCircle
 10
-2.539999999999999
 20
15.24
 30
0.0
 40
0.5
  0
CIRCLE
  5
FF
330
1F
100
AcDbEntity
  8
0
  6
K5LT_BASIC
 62
     5
420
      255
370
    60
100
AcDbCircle
 10
0.0000000000000009
 20
15.24
 30
0.0
 40
0.5
  0
CIRCLE
  5
100
330
1F
100
AcDbEntity
  8
0
  6
K5LT_BASIC
 62
     5
420
      255
370
    60
100
AcDbCircle
 10
2.540000000000001
 20
15.24
 30
0.0
 40
0.5
  0
CIRCLE
  5
101
330
1F
100
AcDbEntity
  8
0
  6
K5LT_BASIC
 62
     5
420
      255
370
    60
100
AcDbCircle
 10
0.0000000000000015
 20
20.32
 30
0.0
 40
0.5
  0
CIRCLE
  5
102
330
1F
100
AcDbEntity
  8
0
  6
K5LT_BASIC
 62
     5
420
      255
370
    60
100
AcDbCircle
 10
2.540000000000001
 20
20.32
 30
0.0
 40
0.5
  0
CIRCLE
  5
103
330
1F
100
AcDbEntity
  8
0
  6
K5LT_BASIC
 62
     5
420
      255
370
    60
100
AcDbCircle
 10
-2.539999999999999
 20
20.32
 30
0.0
 40
0.5
  0
CIRCLE
  5
104
330
1F
100
AcDbEntity
  8
0
  6
K5LT_BASIC
 62
     5
420
      255
370
    60
100
AcDbCircle
 10
0.0000000000000019
 20
22.86
 30
0.0
 40
0.5
  0
CIRCLE
  5
105
330
1F
100
AcDbEntity
  8
0
  6
K5LT_BASIC
 62
     5
420
      255
370
    60
100
AcDbCircle
 10
2.540000000000002
 20
22.86
 30
0.0
 40
0.5
  0
CIRCLE
  5
106
330
1F
100
AcDbEntity
  8
0
  6
K5LT_BASIC
 62
     5
420
      255
370
    60
100
AcDbCircle
 10
-2.539999999999998
 20
22.86
 30
0.0
 40
0.5
  0
CIRCLE
  5
107
330
1F
100
AcDbEntity
  8
0
  6
K5LT_BASIC
 62
     5
420
      255
370
    60
100
AcDbCircle
 10
5.080000000000001
 20
17.78
 30
0.0
 40
0.5
  0
CIRCLE
  5
108
330
1F
100
AcDbEntity
  8
0
  6
K5LT_BASIC
 62
     5
420
      255
370
    60
100
AcDbCircle
 10
7.620000000000001
 20
17.78
 30
0.0
 40
0.5
  0
CIRCLE
  5
109
330
1F
100
AcDbEntity
  8
0
  6
K5LT_BASIC
 62
     5
420
      255
370
    60
100
AcDbCircle
 10
5.080000000000001
 20
15.24
 30
0.0
 40
0.5
  0
CIRCLE
  5
10A
330
1F
100
AcDbEntity
  8
0
  6
K5LT_BASIC
 62
     5
420
      255
370
    60
100
AcDbCircle
 10
7.620000000000001
 20
15.24
 30
0.0
 40
0.5
  0
CIRCLE
  5
10B
330
1F
100
AcDbEntity
  8
0
  6
K5LT_BASIC
 62
     5
420
      255
370
    60
100
AcDbCircle
 10
5.080000000000002
 20
20.32
 30
0.0
 40
0.5
  0
CIRCLE
  5
10C
330
1F
100
AcDbEntity
  8
0
  6
K5LT_BASIC
 62
     5
420
      255
370
    60
100
AcDbCircle
 10
7.620000000000002
 20
20.32
 30
0.0
 40
0.5
  0
CIRCLE
  5
10D
330
1F
100
AcDbEntity
  8
0
  6
K5LT_BASIC
 62
     5
420
      255
370
    60
100
AcDbCircle
 10
5.080000000000002
 20
22.86
 30
0.0
 40
0.5
  0
CIRCLE
  5
10E
330
1F
100
AcDbEntity
  8
0
  6
K5LT_BASIC
 62
     5
420
      255
370
    60
100
AcDbCircle
 10
7.620000000000002
 20
22.86
 30
0.0
 40
0.5
  0
CIRCLE
  5
10F
330
1F
100
AcDbEntity
  8
0
  6
K5LT_BASIC
 62
     5
420
      255
370
    60
100
AcDbCircle
 10
10.16
 20
17.78
 30
0.0
 40
0.5
  0
CIRCLE
  5
110
330
1F
100
AcDbEntity
  8
0
  6
K5LT_BASIC
 62
     5
420
      255
370
    60
100
AcDbCircle
 10
12.7
 20
17.78
 30
0.0
 40
0.5
  0
CIRCLE
  5
111
330
1F
100
AcDbEntity
  8
0
  6
K5LT_BASIC
 62
     5
420
      255
370
    60
100
AcDbCircle
 10
10.16
 20
15.24
 30
0.0
 40
0.5
  0
CIRCLE
  5
112
330
1F
100
AcDbEntity
  8
0
  6
K5LT_BASIC
 62
     5
420
      255
370
    60
100
AcDbCircle
 10
12.7
 20
15.24
 30
0.0
 40
0.5
  0
CIRCLE
  5
113
330
1F
100
AcDbEntity
  8
0
  6
K5LT_BASIC
 62
     5
420
      255
370
    60
100
AcDbCircle
 10
10.16
 20
20.32
 30
0.0
 40
0.5
  0
CIRCLE
  5
114
330
1F
100
AcDbEntity
  8
0
  6
K5LT_BASIC
 62
     5
420
      255
370
    60
100
AcDbCircle
 10
12.7
 20
20.32
 30
0.0
 40
0.5
  0
CIRCLE
  5
115
330
1F
100
AcDbEntity
  8
0
  6
K5LT_BASIC
 62
     5
420
      255
370
    60
100
AcDbCircle
 10
10.16
 20
22.86
 30
0.0
 40
0.5
  0
CIRCLE
  5
116
330
1F
100
AcDbEntity
  8
0
  6
K5LT_BASIC
 62
     5
420
      255
370
    60
100
AcDbCircle
 10
12.7
 20
22.86
 30
0.0
 40
0.5
  0
CIRCLE
  5
117
330
1F
100
AcDbEntity
  8
0
  6
K5LT_BASIC
 62
     5
420
      255
370
    60
100
AcDbCircle
 10
15.24
 20
17.78
 30
0.0
 40
0.5
  0
CIRCLE
  5
118
330
1F
100
AcDbEntity
  8
0
  6
K5LT_BASIC
 62
     5
420
      255
370
    60
100
AcDbCircle
 10
17.78
 20
17.78
 30
0.0
 40
0.5
  0
CIRCLE
  5
119
330
1F
100
AcDbEntity
  8
0
  6
K5LT_BASIC
 62
     5
420
      255
370
    60
100
AcDbCircle
 10
15.24
 20
15.24
 30
0.0
 40
0.5
  0
CIRCLE
  5
11A
330
1F
100
AcDbEntity
  8
0
  6
K5LT_BASIC
 62
     5
420
      255
370
    60
100
AcDbCircle
 10
17.78
 20
15.24
 30
0.0
 40
0.5
  0
CIRCLE
  5
11B
330
1F
100
AcDbEntity
  8
0
  6
K5LT_BASIC
 62
     5
420
      255
370
    60
100
AcDbCircle
 10
15.24
 20
20.32
 30
0.0
 40
0.5
  0
CIRCLE
  5
11C
330
1F
100
AcDbEntity
  8
0
  6
K5LT_BASIC
 62
     5
420
      255
370
    60
100
AcDbCircle
 10
17.78
 20
20.32
 30
0.0
 40
0.5
  0
CIRCLE
  5
11D
330
1F
100
AcDbEntity
  8
0
  6
K5LT_BASIC
 62
     5
420
      255
370
    60
100
AcDbCircle
 10
15.24
 20
22.86
 30
0.0
 40
0.5
  0
CIRCLE
  5
11E
330
1F
100
AcDbEntity
  8
0
  6
K5LT_BASIC
 62
     5
420
      255
370
    60
100
AcDbCircle
 10
17.78
 20
22.86
 30
0.0
 40
0.5
  0
CIRCLE
  5
11F
330
1F
100
AcDbEntity
  8
0
  6
K5LT_BASIC
 62
     5
420
      255
370
    60
100
AcDbCircle
 10
20.32
 20
17.78
 30
0.0
 40
0.5
  0
CIRCLE
  5
120
330
1F
100
AcDbEntity
  8
0
  6
K5LT_BASIC
 62
     5
420
      255
370
    60
100
AcDbCircle
 10
22.86
 20
17.78
 30
0.0
 40
0.5
  0
CIRCLE
  5
121
330
1F
100
AcDbEntity
  8
0
  6
K5LT_BASIC
 62
     5
420
      255
370
    60
100
AcDbCircle
 10
20.32
 20
15.24
 30
0.0
 40
0.5
  0
CIRCLE
  5
122
330
1F
100
AcDbEntity
  8
0
  6
K5LT_BASIC
 62
     5
420
      255
370
    60
100
AcDbCircle
 10
22.86
 20
15.24
 30
0.0
 40
0.5
  0
CIRCLE
  5
123
330
1F
100
AcDbEntity
  8
0
  6
K5LT_BASIC
 62
     5
420
      255
370
    60
100
AcDbCircle
 10
20.32
 20
20.32
 30
0.0
 40
0.5
  0
CIRCLE
  5
124
330
1F
100
AcDbEntity
  8
0
  6
K5LT_BASIC
 62
     5
420
      255
370
    60
100
AcDbCircle
 10
22.86
 20
20.32
 30
0.0
 40
0.5
  0
CIRCLE
  5
125
330
1F
100
AcDbEntity
  8
0
  6
K5LT_BASIC
 62
     5
420
      255
370
    60
100
AcDbCircle
 10
20.32
 20
22.86
 30
0.0
 40
0.5
  0
CIRCLE
  5
126
330
1F
100
AcDbEntity
  8
0
  6
K5LT_BASIC
 62
     5
420
      255
370
    60
100
AcDbCircle
 10
22.86
 20
22.86
 30
0.0
 40
0.5
  0
CIRCLE
  5
127
330
1F
100
AcDbEntity
  8
0
  6
K5LT_BASIC
 62
     5
420
      255
370
    60
100
AcDbCircle
 10
25.4
 20
17.78
 30
0.0
 40
0.5
  0
CIRCLE
  5
128
330
1F
100
AcDbEntity
  8
0
  6
K5LT_BASIC
 62
     5
420
      255
370
    60
100
AcDbCircle
 10
27.94
 20
17.78
 30
0.0
 40
0.5
  0
CIRCLE
  5
129
330
1F
100
AcDbEntity
  8
0
  6
K5LT_BASIC
 62
     5
420
      255
370
    60
100
AcDbCircle
 10
25.4
 20
15.24
 30
0.0
 40
0.5
  0
CIRCLE
  5
12A
330
1F
100
AcDbEntity
  8
0
  6
K5LT_BASIC
 62
     5
420
      255
370
    60
100
AcDbCircle
 10
27.94
 20
15.24
 30
0.0
 40
0.5
  0
CIRCLE
  5
12B
330
1F
100
AcDbEntity
  8
0
  6
K5LT_BASIC
 62
     5
420
      255
370
    60
100
AcDbCircle
 10
25.4
 20
20.32
 30
0.0
 40
0.5
  0
CIRCLE
  5
12C
330
1F
100
AcDbEntity
  8
0
  6
K5LT_BASIC
 62
     5
420
      255
370
    60
100
AcDbCircle
 10
27.94
 20
20.32
 30
0.0
 40
0.5
  0
CIRCLE
  5
12D
330
1F
100
AcDbEntity
  8
0
  6
K5LT_BASIC
 62
     5
420
      255
370
    60
100
AcDbCircle
 10
25.4
 20
22.86
 30
0.0
 40
0.5
  0
CIRCLE
  5
12E
330
1F
100
AcDbEntity
  8
0
  6
K5LT_BASIC
 62
     5
420
      255
370
    60
100
AcDbCircle
 10
27.94
 20
22.86
 30
0.0
 40
0.5
  0
CIRCLE
  5
12F
330
1F
100
AcDbEntity
  8
0
  6
K5LT_BASIC
 62
     5
420
      255
370
    60
100
AcDbCircle
 10
30.48
 20
17.78
 30
0.0
 40
0.5
  0
CIRCLE
  5
130
330
1F
100
AcDbEntity
  8
0
  6
K5LT_BASIC
 62
     5
420
      255
370
    60
100
AcDbCircle
 10
33.02
 20
17.78
 30
0.0
 40
0.5
  0
CIRCLE
  5
131
330
1F
100
AcDbEntity
  8
0
  6
K5LT_BASIC
 62
     5
420
      255
370
    60
100
AcDbCircle
 10
30.48
 20
15.24
 30
0.0
 40
0.5
  0
CIRCLE
  5
132
330
1F
100
AcDbEntity
  8
0
  6
K5LT_BASIC
 62
     5
420
      255
370
    60
100
AcDbCircle
 10
33.02
 20
15.24
 30
0.0
 40
0.5
  0
CIRCLE
  5
133
330
1F
100
AcDbEntity
  8
0
  6
K5LT_BASIC
 62
     5
420
      255
370
    60
100
AcDbCircle
 10
30.48
 20
20.32
 30
0.0
 40
0.5
  0
CIRCLE
  5
134
330
1F
100
AcDbEntity
  8
0
  6
K5LT_BASIC
 62
     5
420
      255
370
    60
100
AcDbCircle
 10
33.02
 20
20.32
 30
0.0
 40
0.5
  0
CIRCLE
  5
135
330
1F
100
AcDbEntity
  8
0
  6
K5LT_BASIC
 62
     5
420
      255
370
    60
100
AcDbCircle
 10
30.48
 20
22.86
 30
0.0
 40
0.5
  0
CIRCLE
  5
136
330
1F
100
AcDbEntity
  8
0
  6
K5LT_BASIC
 62
     5
420
      255
370
    60
100
AcDbCircle
 10
33.02
 20
22.86
 30
0.0
 40
0.5
  0
CIRCLE
  5
137
330
1F
100
AcDbEntity
  8
0
  6
K5LT_BASIC
 62
     5
420
      255
370
    60
100
AcDbCircle
 10
35.56
 20
17.78
 30
0.0
 40
0.5
  0
CIRCLE
  5
138
330
1F
100
AcDbEntity
  8
0
  6
K5LT_BASIC
 62
     5
420
      255
370
    60
100
AcDbCircle
 10
38.1
 20
17.78
 30
0.0
 40
0.5
  0
CIRCLE
  5
139
330
1F
100
AcDbEntity
  8
0
  6
K5LT_BASIC
 62
     5
420
      255
370
    60
100
AcDbCircle
 10
35.56
 20
15.24
 30
0.0
 40
0.5
  0
CIRCLE
  5
13A
330
1F
100
AcDbEntity
  8
0
  6
K5LT_BASIC
 62
     5
420
      255
370
    60
100
AcDbCircle
 10
38.1
 20
15.24
 30
0.0
 40
0.5
  0
CIRCLE
  5
13B
330
1F
100
AcDbEntity
  8
0
  6
K5LT_BASIC
 62
     5
420
      255
370
    60
100
AcDbCircle
 10
35.56
 20
20.32
 30
0.0
 40
0.5
  0
CIRCLE
  5
13C
330
1F
100
AcDbEntity
  8
0
  6
K5LT_BASIC
 62
     5
420
      255
370
    60
100
AcDbCircle
 10
38.1
 20
20.32
 30
0.0
 40
0.5
  0
CIRCLE
  5
13D
330
1F
100
AcDbEntity
  8
0
  6
K5LT_BASIC
 62
     5
420
      255
370
    60
100
AcDbCircle
 10
35.56
 20
22.86
 30
0.0
 40
0.5
  0
CIRCLE
  5
13E
330
1F
100
AcDbEntity
  8
0
  6
K5LT_BASIC
 62
     5
420
      255
370
    60
100
AcDbCircle
 10
38.1
 20
22.86
 30
0.0
 40
0.5
  0
CIRCLE
  5
13F
330
1F
100
AcDbEntity
  8
0
  6
K5LT_BASIC
 62
     5
420
      255
370
    60
100
AcDbCircle
 10
0.0000000000000024
 20
25.4
 30
0.0
 40
0.5
  0
CIRCLE
  5
140
330
1F
100
AcDbEntity
  8
0
  6
K5LT_BASIC
 62
     5
420
      255
370
    60
100
AcDbCircle
 10
2.540000000000002
 20
25.4
 30
0.0
 40
0.5
  0
CIRCLE
  5
141
330
1F
100
AcDbEntity
  8
0
  6
K5LT_BASIC
 62
     5
420
      255
370
    60
100
AcDbCircle
 10
-2.539999999999998
 20
25.4
 30
0.0
 40
0.5
  0
CIRCLE
  5
142
330
1F
100
AcDbEntity
  8
0
  6
K5LT_BASIC
 62
     5
420
      255
370
    60
100
AcDbCircle
 10
5.080000000000002
 20
25.4
 30
0.0
 40
0.5
  0
CIRCLE
  5
143
330
1F
100
AcDbEntity
  8
0
  6
K5LT_BASIC
 62
     5
420
      255
370
    60
100
AcDbCircle
 10
7.620000000000003
 20
25.4
 30
0.0
 40
0.5
  0
CIRCLE
  5
144
330
1F
100
AcDbEntity
  8
0
  6
K5LT_BASIC
 62
     5
420
      255
370
    60
100
AcDbCircle
 10
10.16
 20
25.4
 30
0.0
 40
0.5
  0
CIRCLE
  5
145
330
1F
100
AcDbEntity
  8
0
  6
K5LT_BASIC
 62
     5
420
      255
370
    60
100
AcDbCircle
 10
12.7
 20
25.4
 30
0.0
 40
0.5
  0
CIRCLE
  5
146
330
1F
100
AcDbEntity
  8
0
  6
K5LT_BASIC
 62
     5
420
      255
370
    60
100
AcDbCircle
 10
15.24
 20
25.4
 30
0.0
 40
0.5
  0
CIRCLE
  5
147
330
1F
100
AcDbEntity
  8
0
  6
K5LT_BASIC
 62
     5
420
      255
370
    60
100
AcDbCircle
 10
17.78
 20
25.4
 30
0.0
 40
0.5
  0
CIRCLE
  5
148
330
1F
100
AcDbEntity
  8
0
  6
K5LT_BASIC
 62
     5
420
      255
370
    60
100
AcDbCircle
 10
20.32
 20
25.4
 30
0.0
 40
0.5
  0
CIRCLE
  5
149
330
1F
100
AcDbEntity
  8
0
  6
K5LT_BASIC
 62
     5
420
      255
370
    60
100
AcDbCircle
 10
22.86
 20
25.4
 30
0.0
 40
0.5
  0
CIRCLE
  5
14A
330
1F
100
AcDbEntity
  8
0
  6
K5LT_BASIC
 62
     5
420
      255
370
    60
100
AcDbCircle
 10
25.4
 20
25.4
 30
0.0
 40
0.5
  0
CIRCLE
  5
14B
330
1F
100
AcDbEntity
  8
0
  6
K5LT_BASIC
 62
     5
420
      255
370
    60
100
AcDbCircle
 10
27.94
 20
25.4
 30
0.0
 40
0.5
  0
CIRCLE
  5
14C
330
1F
100
AcDbEntity
  8
0
  6
K5LT_BASIC
 62
     5
420
      255
370
    60
100
AcDbCircle
 10
30.48
 20
25.4
 30
0.0
 40
0.5
  0
CIRCLE
  5
14D
330
1F
100
AcDbEntity
  8
0
  6
K5LT_BASIC
 62
     5
420
      255
370
    60
100
AcDbCircle
 10
33.02
 20
25.4
 30
0.0
 40
0.5
  0
CIRCLE
  5
14E
330
1F
100
AcDbEntity
  8
0
  6
K5LT_BASIC
 62
     5
420
      255
370
    60
100
AcDbCircle
 10
35.56
 20
25.4
 30
0.0
 40
0.5
  0
CIRCLE
  5
14F
330
1F
100
AcDbEntity
  8
0
  6
K5LT_BASIC
 62
     5
420
      255
370
    60
100
AcDbCircle
 10
38.1
 20
25.4
 30
0.0
 40
0.5
  0
XLINE
  5
150
330
1F
100
AcDbEntity
  8
0
 62
     9
420
 14460353
100
AcDbXline
 10
0.0
 20
0.0
 30
0.0
 11
6.123233995736766E-17
 21
1.0
 31
0.0
  0
XLINE
  5
151
330
1F
100
AcDbEntity
  8
0
 62
     9
420
 14460353
100
AcDbXline
 10
0.0
 20
0.0
 30
0.0
 11
1.0
 21
0.0
 31
0.0
  0
XLINE
  5
152
330
1F
100
AcDbEntity
  8
0
 62
     9
420
 14460353
100
AcDbXline
 10
0.0
 20
2.54
 30
0.0
 11
1.0
 21
0.0
 31
0.0
  0
XLINE
  5
153
330
1F
100
AcDbEntity
  8
0
 62
     9
420
 14460353
100
AcDbXline
 10
0.0
 20
-2.54
 30
0.0
 11
1.0
 21
0.0
 31
0.0
  0
XLINE
  5
154
330
1F
100
AcDbEntity
  8
0
 62
     9
420
 14460353
100
AcDbXline
 10
2.54
 20
-0.0000000000000002
 30
0.0
 11
6.123233995736766E-17
 21
1.0
 31
0.0
  0
XLINE
  5
155
330
1F
100
AcDbEntity
  8
0
 62
     9
420
 14460353
100
AcDbXline
 10
-2.54
 20
0.0000000000000002
 30
0.0
 11
6.123233995736766E-17
 21
1.0
 31
0.0
  0
XLINE
  5
156
330
1F
100
AcDbEntity
  8
0
 62
     9
420
 14460353
100
AcDbXline
 10
0.0
 20
5.08
 30
0.0
 11
1.0
 21
0.0
 31
0.0
  0
XLINE
  5
157
330
1F
100
AcDbEntity
  8
0
 62
     9
420
 14460353
100
AcDbXline
 10
-2.539999999999999
 20
7.62
 30
0.0
 11
1.0
 21
0.0
 31
0.0
  0
XLINE
  5
158
330
1F
100
AcDbEntity
  8
0
 62
     9
420
 14460353
100
AcDbXline
 10
5.08
 20
2.54
 30
0.0
 11
6.123233995736766E-17
 21
1.0
 31
0.0
  0
XLINE
  5
159
330
1F
100
AcDbEntity
  8
0
 62
     9
420
 14460353
100
AcDbXline
 10
7.62
 20
2.54
 30
0.0
 11
6.123233995736766E-17
 21
1.0
 31
0.0
  0
XLINE
  5
15A
330
1F
100
AcDbEntity
  8
0
 62
     9
420
 14460353
100
AcDbXline
 10
10.16
 20
2.54
 30
0.0
 11
6.123233995736766E-17
 21
1.0
 31
0.0
  0
XLINE
  5
15B
330
1F
100
AcDbEntity
  8
0
 62
     9
420
 14460353
100
AcDbXline
 10
12.7
 20
2.54
 30
0.0
 11
6.123233995736766E-17
 21
1.0
 31
0.0
  0
XLINE
  5
15C
330
1F
100
AcDbEntity
  8
0
 62
     9
420
 14460353
100
AcDbXline
 10
15.24
 20
2.54
 30
0.0
 11
6.123233995736766E-17
 21
1.0
 31
0.0
  0
XLINE
  5
15D
330
1F
100
AcDbEntity
  8
0
 62
     9
420
 14460353
100
AcDbXline
 10
17.78
 20
2.54
 30
0.0
 11
6.123233995736766E-17
 21
1.0
 31
0.0
  0
XLINE
  5
15E
330
1F
100
AcDbEntity
  8
0
 62
     9
420
 14460353
100
AcDbXline
 10
20.32
 20
0.0
 30
0.0
 11
6.123233995736766E-17
 21
1.0
 31
0.0
  0
XLINE
  5
15F
330
1F
100
AcDbEntity
  8
0
 62
     9
420
 14460353
100
AcDbXline
 10
20.32
 20
0.0
 30
0.0
 11
1.0
 21
0.0
 31
0.0
  0
XLINE
  5
160
330
1F
100
AcDbEntity
  8
0
 62
     9
420
 14460353
100
AcDbXline
 10
20.32
 20
2.54
 30
0.0
 11
1.0
 21
0.0
 31
0.0
  0
XLINE
  5
161
330
1F
100
AcDbEntity
  8
0
 62
     9
420
 14460353
100
AcDbXline
 10
20.32
 20
-2.54
 30
0.0
 11
1.0
 21
0.0
 31
0.0
  0
XLINE
  5
162
330
1F
100
AcDbEntity
  8
0
 62
     9
420
 14460353
100
AcDbXline
 10
22.86
 20
-0.0000000000000002
 30
0.0
 11
6.123233995736766E-17
 21
1.0
 31
0.0
  0
XLINE
  5
163
330
1F
100
AcDbEntity
  8
0
 62
     9
420
 14460353
100
AcDbXline
 10
20.32
 20
5.08
 30
0.0
 11
1.0
 21
0.0
 31
0.0
  0
XLINE
  5
164
330
1F
100
AcDbEntity
  8
0
 62
     9
420
 14460353
100
AcDbXline
 10
17.78
 20
7.62
 30
0.0
 11
1.0
 21
0.0
 31
0.0
  0
XLINE
  5
165
330
1F
100
AcDbEntity
  8
0
 62
     9
420
 14460353
100
AcDbXline
 10
25.4
 20
2.54
 30
0.0
 11
6.123233995736766E-17
 21
1.0
 31
0.0
  0
XLINE
  5
166
330
1F
100
AcDbEntity
  8
0
 62
     9
420
 14460353
100
AcDbXline
 10
27.94
 20
2.54
 30
0.0
 11
6.123233995736766E-17
 21
1.0
 31
0.0
  0
XLINE
  5
167
330
1F
100
AcDbEntity
  8
0
 62
     9
420
 14460353
100
AcDbXline
 10
30.48
 20
2.54
 30
0.0
 11
6.123233995736766E-17
 21
1.0
 31
0.0
  0
XLINE
  5
168
330
1F
100
AcDbEntity
  8
0
 62
     9
420
 14460353
100
AcDbXline
 10
33.02
 20
2.54
 30
0.0
 11
6.123233995736766E-17
 21
1.0
 31
0.0
  0
XLINE
  5
169
330
1F
100
AcDbEntity
  8
0
 62
     9
420
 14460353
100
AcDbXline
 10
35.56
 20
2.54
 30
0.0
 11
6.123233995736766E-17
 21
1.0
 31
0.0
  0
XLINE
  5
16A
330
1F
100
AcDbEntity
  8
0
 62
     9
420
 14460353
100
AcDbXline
 10
38.1
 20
2.54
 30
0.0
 11
6.123233995736766E-17
 21
1.0
 31
0.0
  0
XLINE
  5
16B
330
1F
100
AcDbEntity
  8
0
 62
     9
420
 14460353
100
AcDbXline
 10
-29.3375140232964
 20
10.16
 30
0.0
 11
1.0
 21
0.0
 31
0.0
  0
XLINE
  5
16C
330
1F
100
AcDbEntity
  8
0
 62
     9
420
 14460353
100
AcDbXline
 10
-29.3375140232964
 20
12.7
 30
0.0
 11
1.0
 21
0.0
 31
0.0
  0
XLINE
  5
16D
330
1F
100
AcDbEntity
  8
0
 62
     9
420
 14460353
100
AcDbXline
 10
0.0000000000000009
 20
15.24
 30
0.0
 11
1.0
 21
0.0
 31
0.0
  0
XLINE
  5
16E
330
1F
100
AcDbEntity
  8
0
 62
     9
420
 14460353
100
AcDbXline
 10
0.0000000000000009
 20
17.78
 30
0.0
 11
1.0
 21
0.0
 31
0.0
  0
XLINE
  5
16F
330
1F
100
AcDbEntity
  8
0
 62
     9
420
 14460353
100
AcDbXline
 10
0.0000000000000009
 20
20.32
 30
0.0
 11
1.0
 21
0.0
 31
0.0
  0
XLINE
  5
170
330
1F
100
AcDbEntity
  8
0
 62
     9
420
 14460353
100
AcDbXline
 10
-2.539999999999998
 20
22.86
 30
0.0
 11
1.0
 21
0.0
 31
0.0
  0
XLINE
  5
171
330
1F
100
AcDbEntity
  8
0
 62
     9
420
 14460353
100
AcDbXline
 10
20.32
 20
15.24
 30
0.0
 11
1.0
 21
0.0
 31
0.0
  0
XLINE
  5
172
330
1F
100
AcDbEntity
  8
0
 62
     9
420
 14460353
100
AcDbXline
 10
20.32
 20
17.78
 30
0.0
 11
1.0
 21
0.0
 31
0.0
  0
XLINE
  5
173
330
1F
100
AcDbEntity
  8
0
 62
     9
420
 14460353
100
AcDbXline
 10
20.32
 20
20.32
 30
0.0
 11
1.0
 21
0.0
 31
0.0
  0
XLINE
  5
174
330
1F
100
AcDbEntity
  8
0
 62
     9
420
 14460353
100
AcDbXline
 10
17.78
 20
22.86
 30
0.0
 11
1.0
 21
0.0
 31
0.0
  0
XLINE
  5
175
330
1F
100
AcDbEntity
  8
0
 62
     9
420
 14460353
100
AcDbXline
 10
17.78
 20
25.4
 30
0.0
 11
1.0
 21
0.0
 31
0.0
  0
ENDSEC
  0
SECTION
  2
OBJECTS
  0
DICTIONARY
  5
C
330
0
100
AcDbDictionary
281
     1
  3
ACAD_GROUP
350
D
  3
ACAD_LAYOUT
350
1A
  3
ACAD_MATERIAL
350
3B
  3
ACAD_MLEADERSTYLE
350
19B
  3
ACAD_MLINESTYLE
350
17
  3
ACAD_PLOTSETTINGS
350
19
  3
ACAD_PLOTSTYLENAME
350
E
  3
ACAD_SCALELIST
350
176
  3
ACAD_TABLESTYLE
350
19A
  3
ACAD_VISUALSTYLE
350
2A
  3
AcDbVariableDictionary
350
198
  0
SUN
  5
3F
330
29
100
AcDbSun
 90
        1
290
     0
 63
     7
421
 16777215
 40
1.0
291
     1
 91
  2455826
 92
 54000000
292
     0
 70
     2
 71
   256
280
     1
  0
DICTIONARY
  5
D
102
{ACAD_REACTORS
330
C
102
}
330
C
100
AcDbDictionary
281
     1
  0
DICTIONARY
  5
1A
102
{ACAD_REACTORS
330
C
102
}
330
C
100
AcDbDictionary
281
     1
  3
Layout1
350
1E
  3
Layout2
350
26
  3
Model
350
22
  0
DICTIONARY
  5
3B
102
{ACAD_REACTORS
330
C
102
}
330
C
100
AcDbDictionary
281
     1
  3
ByBlock
350
3D
  3
ByLayer
350
3C
  3
Global
350
3E
  0
DICTIONARY
  5
19B
102
{ACAD_REACTORS
330
C
102
}
330
C
100
AcDbDictionary
281
     1
  0
DICTIONARY
  5
17
102
{ACAD_REACTORS
330
C
102
}
330
C
100
AcDbDictionary
281
     1
  3
Standard
350
18
  0
DICTIONARY
  5
19
102
{ACAD_REACTORS
330
C
102
}
330
C
100
AcDbDictionary
281
     1
  0
ACDBDICTIONARYWDFLT
  5
E
102
{ACAD_REACTORS
330
C
102
}
330
C
100
AcDbDictionary
281
     1
  3
Normal
350
F
100
AcDbDictionaryWithDefault
340
F
  0
DICTIONARY
  5
176
102
{ACAD_REACTORS
330
C
102
}
330
C
100
AcDbDictionary
281
     1
  3
A0
350
177
  3
A1
350
178
  3
A2
350
179
  3
A3
350
17A
  3
A4
350
17B
  3
A5
350
17C
  3
A6
350
17D
  3
A7
350
17E
  3
A8
350
17F
  3
A9
350
180
  3
B0
350
181
  3
B1
350
182
  3
B2
350
183
  3
B3
350
184
  3
B4
350
185
  3
B5
350
186
  3
B6
350
187
  3
B7
350
188
  3
B8
350
189
  3
B9
350
18A
  3
C0
350
18B
  3
C1
350
18C
  3
C2
350
18D
  3
C3
350
18E
  3
C4
350
18F
  3
C5
350
190
  3
C6
350
191
  3
C7
350
192
  3
C8
350
193
  3
C9
350
194
  3
D0
350
195
  3
D1
350
196
  3
D2
350
197
  0
DICTIONARY
  5
19A
102
{ACAD_REACTORS
330
C
102
}
330
C
100
AcDbDictionary
281
     1
  0
DICTIONARY
  5
2A
102
{ACAD_REACTORS
330
C
102
}
330
C
100
AcDbDictionary
281
     1
  3
2dWireframe
350
2F
  3
3D Hidden
350
31
  3
3dWireframe
350
30
  3
Basic
350
32
  3
Brighten
350
36
  3
ColorChange
350
3A
  3
Conceptual
350
34
  3
Dim
350
35
  3
Facepattern
350
39
  3
Flat
350
2B
  3
FlatWithEdges
350
2C
  3
Gouraud
350
2D
  3
GouraudWithEdges
350
2E
  3
Linepattern
350
38
  3
Realistic
350
33
  3
Thicken
350
37
  0
DICTIONARY
  5
198
102
{ACAD_REACTORS
330
C
102
}
330
C
100
AcDbDictionary
281
     1
  3
CANNOSCALE
350
199
  0
LAYOUT
  5
1E
102
{ACAD_REACTORS
330
1A
102
}
330
1A
100
AcDbPlotSettings
  1

  2
none_device
  4

  6

 40
0.0
 41
0.0
 42
0.0
 43
0.0
 44
0.0
 45
0.0
 46
0.0
 47
0.0
 48
0.0
 49
0.0
140
0.0
141
0.0
142
1.0
143
1.0
 70
   688
 72
     0
 73
     0
 74
     5
  7

 75
    16
 76
     0
 77
     2
 78
   300
147
1.0
148
0.0
149
0.0
100
AcDbLayout
  1
Layout1
 70
     1
 71
     1
 10
0.0
 20
0.0
 11
420.0
 21
297.0
 12
0.0
 22
0.0
 32
0.0
 14
1.000000000000000E+20
 24
1.000000000000000E+20
 34
1.000000000000000E+20
 15
-1.000000000000000E+20
 25
-1.000000000000000E+20
 35
-1.000000000000000E+20
146
0.0
 13
0.0
 23
0.0
 33
0.0
 16
1.0
 26
0.0
 36
0.0
 17
0.0
 27
1.0
 37
0.0
 76
     0
330
1B
  0
LAYOUT
  5
26
102
{ACAD_REACTORS
330
1A
102
}
330
1A
100
AcDbPlotSettings
  1

  2
none_device
  4

  6

 40
0.0
 41
0.0
 42
0.0
 43
0.0
 44
0.0
 45
0.0
 46
0.0
 47
0.0
 48
0.0
 49
0.0
140
0.0
141
0.0
142
1.0
143
1.0
 70
   688
 72
     0
 73
     0
 74
     5
  7

 75
    16
 76
     0
 77
     2
 78
   300
147
1.0
148
0.0
149
0.0
100
AcDbLayout
  1
Layout2
 70
     1
 71
     2
 10
0.0
 20
0.0
 11
0.0
 21
0.0
 12
0.0
 22
0.0
 32
0.0
 14
0.0
 24
0.0
 34
0.0
 15
0.0
 25
0.0
 35
0.0
146
0.0
 13
0.0
 23
0.0
 33
0.0
 16
1.0
 26
0.0
 36
0.0
 17
0.0
 27
1.0
 37
0.0
 76
     0
330
23
  0
LAYOUT
  5
22
102
{ACAD_REACTORS
330
1A
102
}
330
1A
100
AcDbPlotSettings
  1

  2
none_device
  4

  6

 40
0.0
 41
0.0
 42
0.0
 43
0.0
 44
0.0
 45
0.0
 46
0.0
 47
0.0
 48
0.0
 49
0.0
140
0.0
141
0.0
142
1.0
143
1.0
 70
  1712
 72
     0
 73
     0
 74
     0
  7

 75
     0
 76
     0
 77
     2
 78
   300
147
1.0
148
0.0
149
0.0
100
AcDbLayout
  1
Model
 70
     1
 71
     0
 10
0.0
 20
0.0
 11
420.0
 21
297.0
 12
0.0
 22
0.0
 32
0.0
 14
-3.04
 24
-3.04
 34
0.0
 15
38.6
 25
25.9
 35
0.0
146
0.0
 13
0.0
 23
0.0
 33
0.0
 16
1.0
 26
0.0
 36
0.0
 17
0.0
 27
1.0
 37
0.0
 76
     0
330
1F
331
29
  0
MATERIAL
  5
3D
102
{ACAD_REACTORS
330
3B
102
}
330
3B
100
AcDbMaterial
  1
ByBlock
 72
     1
 94
      127
  0
MATERIAL
  5
3C
102
{ACAD_REACTORS
330
3B
102
}
330
3B
100
AcDbMaterial
  1
ByLayer
 72
     1
 94
      127
  0
MATERIAL
  5
3E
102
{ACAD_REACTORS
330
3B
102
}
330
3B
100
AcDbMaterial
  1
Global
 72
     1
 94
      127
  0
MLINESTYLE
  5
18
102
{ACAD_REACTORS
330
17
102
}
330
17
100
AcDbMlineStyle
  2
Standard
 70
     0
  3

 62
   256
 51
90.0
 52
90.0
 71
     2
 49
0.5
 62
   256
  6
BYLAYER
 49
-0.5
 62
   256
  6
BYLAYER
  0
ACDBPLACEHOLDER
  5
F
102
{ACAD_REACTORS
330
E
102
}
330
E
  0
SCALE
  5
177
102
{ACAD_REACTORS
330
176
102
}
330
176
100
AcDbScale
 70
     0
300
1:1
140
1.0
141
1.0
290
     1
  0
SCALE
  5
178
102
{ACAD_REACTORS
330
176
102
}
330
176
100
AcDbScale
 70
     0
300
1:2
140
1.0
141
2.0
290
     0
  0
SCALE
  5
179
102
{ACAD_REACTORS
330
176
102
}
330
176
100
AcDbScale
 70
     0
300
1:4
140
1.0
141
4.0
290
     0
  0
SCALE
  5
17A
102
{ACAD_REACTORS
330
176
102
}
330
176
100
AcDbScale
 70
     0
300
1:5
140
1.0
141
5.0
290
     0
  0
SCALE
  5
17B
102
{ACAD_REACTORS
330
176
102
}
330
176
100
AcDbScale
 70
     0
300
1:8
140
1.0
141
8.0
290
     0
  0
SCALE
  5
17C
102
{ACAD_REACTORS
330
176
102
}
330
176
100
AcDbScale
 70
     0
300
1:10
140
1.0
141
10.0
290
     0
  0
SCALE
  5
17D
102
{ACAD_REACTORS
330
176
102
}
330
176
100
AcDbScale
 70
     0
300
1:16
140
1.0
141
16.0
290
     0
  0
SCALE
  5
17E
102
{ACAD_REACTORS
330
176
102
}
330
176
100
AcDbScale
 70
     0
300
1:20
140
1.0
141
20.0
290
     0
  0
SCALE
  5
17F
102
{ACAD_REACTORS
330
176
102
}
330
176
100
AcDbScale
 70
     0
300
1:30
140
1.0
141
30.0
290
     0
  0
SCALE
  5
180
102
{ACAD_REACTORS
330
176
102
}
330
176
100
AcDbScale
 70
     0
300
1:40
140
1.0
141
40.0
290
     0
  0
SCALE
  5
181
102
{ACAD_REACTORS
330
176
102
}
330
176
100
AcDbScale
 70
     0
300
1:50
140
1.0
141
50.0
290
     0
  0
SCALE
  5
182
102
{ACAD_REACTORS
330
176
102
}
330
176
100
AcDbScale
 70
     0
300
1:100
140
1.0
141
100.0
290
     0
  0
SCALE
  5
183
102
{ACAD_REACTORS
330
176
102
}
330
176
100
AcDbScale
 70
     0
300
2:1
140
2.0
141
1.0
290
     0
  0
SCALE
  5
184
102
{ACAD_REACTORS
330
176
102
}
330
176
100
AcDbScale
 70
     0
300
4:1
140
4.0
141
1.0
290
     0
  0
SCALE
  5
185
102
{ACAD_REACTORS
330
176
102
}
330
176
100
AcDbScale
 70
     0
300
8:1
140
8.0
141
1.0
290
     0
  0
SCALE
  5
186
102
{ACAD_REACTORS
330
176
102
}
330
176
100
AcDbScale
 70
     0
300
10:1
140
10.0
141
1.0
290
     0
  0
SCALE
  5
187
102
{ACAD_REACTORS
330
176
102
}
330
176
100
AcDbScale
 70
     0
300
100:1
140
100.0
141
1.0
290
     0
  0
SCALE
  5
188
102
{ACAD_REACTORS
330
176
102
}
330
176
100
AcDbScale
 70
     0
300
1/128" = 1'-0"
140
0.0078125
141
12.0
290
     0
  0
SCALE
  5
189
102
{ACAD_REACTORS
330
176
102
}
330
176
100
AcDbScale
 70
     0
300
1/64" = 1'-0"
140
0.015625
141
12.0
290
     0
  0
SCALE
  5
18A
102
{ACAD_REACTORS
330
176
102
}
330
176
100
AcDbScale
 70
     0
300
1/32" = 1'-0"
140
0.03125
141
12.0
290
     0
  0
SCALE
  5
18B
102
{ACAD_REACTORS
330
176
102
}
330
176
100
AcDbScale
 70
     0
300
1/16" = 1'-0"
140
0.0625
141
12.0
290
     0
  0
SCALE
  5
18C
102
{ACAD_REACTORS
330
176
102
}
330
176
100
AcDbScale
 70
     0
300
3/32" = 1'-0"
140
0.09375
141
12.0
290
     0
  0
SCALE
  5
18D
102
{ACAD_REACTORS
330
176
102
}
330
176
100
AcDbScale
 70
     0
300
1/8" = 1'-0"
140
0.125
141
12.0
290
     0
  0
SCALE
  5
18E
102
{ACAD_REACTORS
330
176
102
}
330
176
100
AcDbScale
 70
     0
300
3/16" = 1'-0"
140
0.1875
141
12.0
290
     0
  0
SCALE
  5
18F
102
{ACAD_REACTORS
330
176
102
}
330
176
100
AcDbScale
 70
     0
300
1/4" = 1'-0"
140
0.25
141
12.0
290
     0
  0
SCALE
  5
190
102
{ACAD_REACTORS
330
176
102
}
330
176
100
AcDbScale
 70
     0
300
3/8" = 1'-0"
140
0.375
141
12.0
290
     0
  0
SCALE
  5
191
102
{ACAD_REACTORS
330
176
102
}
330
176
100
AcDbScale
 70
     0
300
1/2" = 1'-0"
140
0.5
141
12.0
290
     0
  0
SCALE
  5
192
102
{ACAD_REACTORS
330
176
102
}
330
176
100
AcDbScale
 70
     0
300
3/4" = 1'-0"
140
0.75
141
12.0
290
     0
  0
SCALE
  5
193
102
{ACAD_REACTORS
330
176
102
}
330
176
100
AcDbScale
 70
     0
300
1" = 1'-0"
140
1.0
141
12.0
290
     0
  0
SCALE
  5
194
102
{ACAD_REACTORS
330
176
102
}
330
176
100
AcDbScale
 70
     0
300
1-1/2" = 1'-0"
140
1.5
141
12.0
290
     0
  0
SCALE
  5
195
102
{ACAD_REACTORS
330
176
102
}
330
176
100
AcDbScale
 70
     0
300
3" = 1'-0"
140
3.0
141
12.0
290
     0
  0
SCALE
  5
196
102
{ACAD_REACTORS
330
176
102
}
330
176
100
AcDbScale
 70
     0
300
6" = 1'-0"
140
6.0
141
12.0
290
     0
  0
SCALE
  5
197
102
{ACAD_REACTORS
330
176
102
}
330
176
100
AcDbScale
 70
     0
300
1'-0" = 1'-0"
140
12.0
141
12.0
290
     0
  0
VISUALSTYLE
  5
2F
102
{ACAD_REACTORS
330
2A
102
}
330
2A
100
AcDbVisualStyle
  2
2dWireframe
 70
     4
177
     2
291
     0
 71
     0
176
     1
 72
     2
176
     1
 73
     0
176
     1
 90
        0
176
     1
 40
-0.6
176
     1
 41
-30.0
176
     1
 62
     5
 63
     7
421
 16777215
176
     1
 74
     1
176
     1
 91
        4
176
     1
 64
     7
176
     1
 65
   257
176
     1
 75
     1
176
     1
175
     1
176
     1
 42
1.0
176
     1
 92
        0
176
     1
 66
   257
176
     1
 43
1.0
176
     1
 76
     1
176
     1
 77
     6
176
     1
 78
     2
176
     1
 67
     7
176
     1
 79
     5
176
     1
170
     0
176
     1
171
     0
176
     1
290
     0
176
     1
 93
        1
176
     1
 44
0.0
176
     1
173
     0
176
     1
  0
VISUALSTYLE
  5
31
102
{ACAD_REACTORS
330
2A
102
}
330
2A
100
AcDbVisualStyle
  2
3D Hidden
 70
     6
177
     2
291
     0
 71
     1
176
     1
 72
     2
176
     1
 73
     2
176
     1
 90
        0
176
     1
 40
-0.6
176
     1
 41
-30.0
176
     1
 62
     5
 63
     7
421
 16777215
176
     1
 74
     2
176
     1
 91
        2
176
     1
 64
     7
176
     1
 65
   257
176
     1
 75
     2
176
     1
175
     1
176
     1
 42
40.0
176
     1
 92
        0
176
     1
 66
   257
176
     1
 43
1.0
176
     1
 76
     1
176
     1
 77
     6
176
     1
 78
     2
176
     1
 67
     7
176
     1
 79
     3
176
     1
170
     0
176
     1
171
     0
176
     1
290
     0
176
     1
 93
        1
176
     1
 44
0.0
176
     1
173
     0
176
     1
  0
VISUALSTYLE
  5
30
102
{ACAD_REACTORS
330
2A
102
}
330
2A
100
AcDbVisualStyle
  2
3dWireframe
 70
     5
177
     2
291
     0
 71
     0
176
     1
 72
     2
176
     1
 73
     0
176
     1
 90
        0
176
     1
 40
-0.6
176
     1
 41
-30.0
176
     1
 62
     5
 63
     7
421
 16777215
176
     1
 74
     1
176
     1
 91
        4
176
     1
 64
     7
176
     1
 65
   257
176
     1
 75
     1
176
     1
175
     1
176
     1
 42
1.0
176
     1
 92
        0
176
     1
 66
   257
176
     1
 43
1.0
176
     1
 76
     1
176
     1
 77
     6
176
     1
 78
     2
176
     1
 67
     7
176
     1
 79
     5
176
     1
170
     0
176
     1
171
     0
176
     1
290
     0
176
     1
 93
        1
176
     1
 44
0.0
176
     1
173
     0
176
     1
  0
VISUALSTYLE
  5
32
102
{ACAD_REACTORS
330
2A
102
}
330
2A
100
AcDbVisualStyle
  2
Basic
 70
     7
177
     2
291
     1
 71
     1
176
     1
 72
     0
176
     1
 73
     1
176
     1
 90
        0
176
     1
 40
-0.6
176
     1
 41
-30.0
176
     1
 62
     5
 63
     7
421
 16777215
176
     1
 74
     0
176
     1
 91
        4
176
     1
 64
     7
176
     1
 65
   257
176
     1
 75
     1
176
     1
175
     1
176
     1
 42
1.0
176
     1
 92
        8
176
     1
 66
     7
176
     1
 43
1.0
176
     1
 76
     1
176
     1
 77
     6
176
     1
 78
     2
176
     1
 67
     7
176
     1
 79
     5
176
     1
170
     0
176
     1
171
     0
176
     1
290
     0
176
     1
 93
        1
176
     1
 44
0.0
176
     1
173
     0
176
     1
  0
VISUALSTYLE
  5
36
102
{ACAD_REACTORS
330
2A
102
}
330
2A
100
AcDbVisualStyle
  2
Brighten
 70
    12
177
     2
291
     1
 71
     2
176
     1
 72
     2
176
     1
 73
     0
176
     1
 90
        0
176
     1
 40
-0.6
176
     1
 41
-30.0
176
     1
 62
     5
 63
     7
421
 16777215
176
     1
 74
     1
176
     1
 91
        4
176
     1
 64
     7
176
     1
 65
   257
176
     1
 75
     1
176
     1
175
     1
176
     1
 42
1.0
176
     1
 92
        8
176
     1
 66
     7
176
     1
 43
1.0
176
     1
 76
     1
176
     1
 77
     6
176
     1
 78
     2
176
     1
 67
     7
176
     1
 79
     5
176
     1
170
     0
176
     1
171
     0
176
     1
290
     0
176
     1
 93
        1
176
     1
 44
50.0
176
     1
173
     0
176
     1
  0
VISUALSTYLE
  5
3A
102
{ACAD_REACTORS
330
2A
102
}
330
2A
100
AcDbVisualStyle
  2
ColorChange
 70
    16
177
     2
291
     1
 71
     2
176
     1
 72
     2
176
     1
 73
     3
176
     1
 90
        0
176
     1
 40
-0.6
176
     1
 41
-30.0
176
     1
 62
     5
 63
     8
421
  8421504
176
     1
 74
     1
176
     1
 91
        4
176
     1
 64
     7
176
     1
 65
   257
176
     1
 75
     1
176
     1
175
     1
176
     1
 42
1.0
176
     1
 92
        8
176
     1
 66
     8
424
  8421504
176
     1
 43
1.0
176
     1
 76
     1
176
     1
 77
     6
176
     1
 78
     2
176
     1
 67
     7
176
     1
 79
     5
176
     1
170
     0
176
     1
171
     0
176
     1
290
     0
176
     1
 93
        1
176
     1
 44
0.0
176
     1
173
     0
176
     1
  0
VISUALSTYLE
  5
34
102
{ACAD_REACTORS
330
2A
102
}
330
2A
100
AcDbVisualStyle
  2
Conceptual
 70
     9
177
     2
291
     0
 71
     3
176
     1
 72
     2
176
     1
 73
     0
176
     1
 90
        0
176
     1
 40
-0.6
176
     1
 41
-30.0
176
     1
 62
     5
 63
     7
421
 16777215
176
     1
 74
     2
176
     1
 91
        2
176
     1
 64
     7
176
     1
 65
   257
176
     1
 75
     1
176
     1
175
     1
176
     1
 42
40.0
176
     1
 92
        8
176
     1
 66
     7
176
     1
 43
1.0
176
     1
 76
     1
176
     1
 77
     6
176
     1
 78
     2
176
     1
 67
     7
176
     1
 79
     3
176
     1
170
     0
176
     1
171
     0
176
     1
290
     0
176
     1
 93
        1
176
     1
 44
0.0
176
     1
173
     0
176
     1
  0
VISUALSTYLE
  5
35
102
{ACAD_REACTORS
330
2A
102
}
330
2A
100
AcDbVisualStyle
  2
Dim
 70
    11
177
     2
291
     1
 71
     2
176
     1
 72
     2
176
     1
 73
     0
176
     1
 90
        0
176
     1
 40
-0.6
176
     1
 41
-30.0
176
     1
 62
     5
 63
     7
421
 16777215
176
     1
 74
     1
176
     1
 91
        4
176
     1
 64
     7
176
     1
 65
   257
176
     1
 75
     1
176
     1
175
     1
176
     1
 42
1.0
176
     1
 92
        8
176
     1
 66
     7
176
     1
 43
1.0
176
     1
 76
     1
176
     1
 77
     6
176
     1
 78
     2
176
     1
 67
     7
176
     1
 79
     5
176
     1
170
     0
176
     1
171
     0
176
     1
290
     0
176
     1
 93
        1
176
     1
 44
-50.0
176
     1
173
     0
176
     1
  0
VISUALSTYLE
  5
39
102
{ACAD_REACTORS
330
2A
102
}
330
2A
100
AcDbVisualStyle
  2
Facepattern
 70
    15
177
     2
291
     1
 71
     2
176
     1
 72
     2
176
     1
 73
     0
176
     1
 90
        0
176
     1
 40
-0.6
176
     1
 41
-30.0
176
     1
 62
     5
 63
     7
421
 16777215
176
     1
 74
     1
176
     1
 91
        4
176
     1
 64
     7
176
     1
 65
   257
176
     1
 75
     1
176
     1
175
     1
176
     1
 42
1.0
176
     1
 92
        8
176
     1
 66
     7
176
     1
 43
1.0
176
     1
 76
     1
176
     1
 77
     6
176
     1
 78
     2
176
     1
 67
     7
176
     1
 79
     5
176
     1
170
     0
176
     1
171
     0
176
     1
290
     0
176
     1
 93
        1
176
     1
 44
0.0
176
     1
173
     0
176
     1
  0
VISUALSTYLE
  5
2B
102
{ACAD_REACTORS
330
2A
102
}
330
2A
100
AcDbVisualStyle
  2
Flat
 70
     0
177
     2
291
     1
 71
     2
176
     1
 72
     1
176
     1
 73
     1
176
     1
 90
        2
176
     1
 40
-0.6
176
     1
 41
30.0
176
     1
 62
     5
 63
     7
421
 16777215
176
     1
 74
     0
176
     1
 91
        4
176
     1
 64
     7
176
     1
 65
   257
176
     1
 75
     1
176
     1
175
     1
176
     1
 42
1.0
176
     1
 92
        8
176
     1
 66
     7
176
     1
 43
1.0
176
     1
 76
     1
176
     1
 77
     6
176
     1
 78
     2
176
     1
 67
     7
176
     1
 79
     5
176
     1
170
     0
176
     1
171
     0
176
     1
290
     0
176
     1
 93
       13
176
     1
 44
0.0
176
     1
173
     0
176
     1
  0
VISUALSTYLE
  5
2C
102
{ACAD_REACTORS
330
2A
102
}
330
2A
100
AcDbVisualStyle
  2
FlatWithEdges
 70
     1
177
     2
291
     1
 71
     2
176
     1
 72
     1
176
     1
 73
     1
176
     1
 90
        2
176
     1
 40
-0.6
176
     1
 41
30.0
176
     1
 62
     5
 63
     7
421
 16777215
176
     1
 74
     1
176
     1
 91
        4
176
     1
 64
     7
176
     1
 65
   257
176
     1
 75
     1
176
     1
175
     1
176
     1
 42
1.0
176
     1
 92
        0
176
     1
 66
   257
176
     1
 43
1.0
176
     1
 76
     1
176
     1
 77
     6
176
     1
 78
     2
176
     1
 67
     7
176
     1
 79
     5
176
     1
170
     0
176
     1
171
     0
176
     1
290
     0
176
     1
 93
       13
176
     1
 44
0.0
176
     1
173
     0
176
     1
  0
VISUALSTYLE
  5
2D
102
{ACAD_REACTORS
330
2A
102
}
330
2A
100
AcDbVisualStyle
  2
Gouraud
 70
     2
177
     2
291
     1
 71
     2
176
     1
 72
     2
176
     1
 73
     1
176
     1
 90
        2
176
     1
 40
-0.6
176
     1
 41
30.0
176
     1
 62
     5
 63
     7
421
 16777215
176
     1
 74
     0
176
     1
 91
        4
176
     1
 64
     7
176
     1
 65
   257
176
     1
 75
     1
176
     1
175
     1
176
     1
 42
1.0
176
     1
 92
        0
176
     1
 66
     7
176
     1
 43
1.0
176
     1
 76
     1
176
     1
 77
     6
176
     1
 78
     2
176
     1
 67
     7
176
     1
 79
     5
176
     1
170
     0
176
     1
171
     0
176
     1
290
     0
176
     1
 93
       13
176
     1
 44
0.0
176
     1
173
     0
176
     1
  0
VISUALSTYLE
  5
2E
102
{ACAD_REACTORS
330
2A
102
}
330
2A
100
AcDbVisualStyle
  2
GouraudWithEdges
 70
     3
177
     2
291
     1
 71
     2
176
     1
 72
     2
176
     1
 73
     1
176
     1
 90
        2
176
     1
 40
-0.6
176
     1
 41
30.0
176
     1
 62
     5
 63
     7
421
 16777215
176
     1
 74
     1
176
     1
 91
        4
176
     1
 64
     7
176
     1
 65
   257
176
     1
 75
     1
176
     1
175
     1
176
     1
 42
1.0
176
     1
 92
        0
176
     1
 66
   257
176
     1
 43
1.0
176
     1
 76
     1
176
     1
 77
     6
176
     1
 78
     2
176
     1
 67
     7
176
     1
 79
     5
176
     1
170
     0
176
     1
171
     0
176
     1
290
     0
176
     1
 93
       13
176
     1
 44
0.0
176
     1
173
     0
176
     1
  0
VISUALSTYLE
  5
38
102
{ACAD_REACTORS
330
2A
102
}
330
2A
100
AcDbVisualStyle
  2
Linepattern
 70
    14
177
     2
291
     1
 71
     2
176
     1
 72
     2
176
     1
 73
     0
176
     1
 90
        0
176
     1
 40
-0.6
176
     1
 41
-30.0
176
     1
 62
     5
 63
     7
421
 16777215
176
     1
 74
     1
176
     1
 91
        4
176
     1
 64
     7
176
     1
 65
   257
176
     1
 75
     7
176
     1
175
     7
176
     1
 42
1.0
176
     1
 92
        8
176
     1
 66
     7
176
     1
 43
1.0
176
     1
 76
     1
176
     1
 77
     6
176
     1
 78
     2
176
     1
 67
     7
176
     1
 79
     5
176
     1
170
     0
176
     1
171
     0
176
     1
290
     0
176
     1
 93
        1
176
     1
 44
0.0
176
     1
173
     0
176
     1
  0
VISUALSTYLE
  5
33
102
{ACAD_REACTORS
330
2A
102
}
330
2A
100
AcDbVisualStyle
  2
Realistic
 70
     8
177
     2
291
     0
 71
     2
176
     1
 72
     2
176
     1
 73
     0
176
     1
 90
        0
176
     1
 40
-0.6
176
     1
 41
-30.0
176
     1
 62
     5
 63
     7
421
 16777215
176
     1
 74
     1
176
     1
 91
        0
176
     1
 64
     7
176
     1
 65
   257
176
     1
 75
     1
176
     1
175
     1
176
     1
 42
1.0
176
     1
 92
        8
176
     1
 66
     8
424
  7895160
176
     1
 43
1.0
176
     1
 76
     1
176
     1
 77
     6
176
     1
 78
     2
176
     1
 67
     7
176
     1
 79
     5
176
     1
170
     0
176
     1
171
     0
176
     1
290
     0
176
     1
 93
       13
176
     1
 44
0.0
176
     1
173
     0
176
     1
  0
VISUALSTYLE
  5
37
102
{ACAD_REACTORS
330
2A
102
}
330
2A
100
AcDbVisualStyle
  2
Thicken
 70
    13
177
     2
291
     1
 71
     2
176
     1
 72
     2
176
     1
 73
     0
176
     1
 90
        0
176
     1
 40
-0.6
176
     1
 41
-30.0
176
     1
 62
     5
 63
     7
421
 16777215
176
     1
 74
     1
176
     1
 91
        4
176
     1
 64
     7
176
     1
 65
   257
176
     1
 75
     1
176
     1
175
     1
176
     1
 42
1.0
176
     1
 92
       12
176
     1
 66
     7
176
     1
 43
1.0
176
     1
 76
     1
176
     1
 77
     6
176
     1
 78
     2
176
     1
 67
     7
176
     1
 79
     5
176
     1
170
     0
176
     1
171
     0
176
     1
290
     0
176
     1
 93
        1
176
     1
 44
0.0
176
     1
173
     0
176
     1
  0
DICTIONARYVAR
  5
199
102
{ACAD_REACTORS
330
198
102
}
330
198
100
DictionaryVariables
280
     0
  1
1:1
  0
ENDSEC
  0
SECTION
  2
THUMBNAILIMAGE
 90
    16364
310
28000000B40000005500000001000800000000000000000000000000000000000000000000000000FFFFFF00FF000000FFFF000000FF000000FFFF000000FF00FF00FF000000000080808000C0C0C000FF000000FF7F7F00A5000000A55252007F0000007F3F3F004C0000004C2626002600000026131300FF3F0000FF9F7F
310
00A5290000A56752007F1F00007F4F3F004C1300004C2F26002609000026171300FF7F0000FFBF7F00A5520000A57C52007F3F00007F5F3F004C2600004C39260026130000261C1300FFBF0000FFDF7F00A57C0000A59152007F5F00007F6F3F004C3900004C422600261C000026211300FFFF0000FFFF7F00A5A50000A5A5
310
52007F7F00007F7F3F004C4C00004C4C26002626000026261300BFFF0000DFFF7F007CA5000091A552005F7F00006F7F3F00394C0000424C26001C260000212613007FFF0000BFFF7F0052A500007CA552003F7F00005F7F3F00264C0000394C2600132600001C2613003FFF00009FFF7F0029A5000067A552001F7F00004F
310
7F3F00134C00002F4C2600092600001726130000FF00007FFF7F0000A5000052A55200007F00003F7F3F00004C0000264C2600002600001326130000FF3F007FFF9F0000A5290052A56700007F1F003F7F4F00004C1300264C2F00002609001326170000FF7F007FFFBF0000A5520052A57C00007F3F003F7F5F00004C2600
310
264C39000026130013261C0000FFBF007FFFDF0000A57C0052A59100007F5F003F7F6F00004C3900264C420000261C001326210000FFFF007FFFFF0000A5A50052A5A500007F7F003F7F7F00004C4C00264C4C00002626001326260000BFFF007FDFFF00007CA5005291A500005F7F003F6F7F0000394C0026424C00001C26
310
0013212600007FFF007FBFFF000052A500527CA500003F7F003F5F7F0000264C0026394C0000132600131C2600003FFF007F9FFF000029A5005267A500001F7F003F4F7F0000134C00262F4C0000092600131726000000FF007F7FFF000000A5005252A50000007F003F3F7F0000004C0026264C0000002600131326003F00
310
FF009F7FFF002900A5006752A5001F007F004F3F7F0013004C002F264C0009002600171326007F00FF00BF7FFF005200A5007C52A5003F007F005F3F7F0026004C0039264C00130026001C132600BF00FF00DF7FFF007C00A5009152A5005F007F006F3F7F0039004C0042264C001C00260021132600FF00FF00FF7FFF00A5
310
00A500A552A5007F007F007F3F7F004C004C004C264C002600260026132600FF00BF00FF7FDF00A5007C00A55291007F005F007F3F6F004C0039004C26420026001C0026132100FF007F00FF7FBF00A5005200A5527C007F003F007F3F5F004C0026004C2639002600130026131C00FF003F00FF7F9F00A5002900A5526700
310
7F001F007F3F4F004C0013004C262F002600090026131700000000002D2D2D005B5B5B0089898900B7B7B700B3B3B30000000000000000000000000000000000000000000000000000000000000000FE00000000000000FE000000000000FE000000000000FE00000000000000FE000000000000FE000000000000FE000000
310
00000000FE000000000000FE000000000000FE00000000000000FE000000000000FE000000000000FE00000000000000FE000000000000FE000000000000FE00000000000000FE0000000000000000000000000000000000000000000000000000000000000000000000000000000000000000000000000000000000000000
310
0000000001FE01010000000001FE010000000001FE010000000001FE01000000000001FE010000000001FE010000000001FE01000000000001FE010000000001FE010000000001FE01000000000001FE010000000001FE010000000001FE01000000000001FE010000000001FE010000000001FE01000000000101FE010000
310
000000000000000000000000000000000000000000000000000000FEFEFEFEFEFEFEFEFEFEFEFEFEFEFEFEFEFEFEFEFEFEFEFEFEFEFEFEFEFEFEFEFEFEFEFEFEFEFEFEFEFEFEFEFEFEFEFEFEFEFEFEFEFEFEFEFEFEFEFEFEFEFEFEFEFEFEFEFEFEFEFEFEFEFEFEFEFEFEFEFEFEFEFEFEFEFEFEFEFEFEFEFEFEFEFEFEFEFEFE
310
FEFEFEFEFEFEFEFEFEFEFEFEFEFEFEFEFEFEFEFEFEFEFEFEFEFEFEFEFEFEFEFEFEFEFEFEFEFEFEFEFEFEFEFEFEFEFEFEFEFEFEFEFEFEFEFEFEFEFEFEFEFEFEFEFEFEFEFEFEFEFEFEFEFEFEFEFEFEFEFE00000000000000000000000000000000000000000000000000000000000001FE01010000000001FE010000000001FE
310
010000000001FE01000000000001FE010000000001FE010000000001FE01000000000001FE010000000001FE010000000001FE01000000000001FE010000000001FE010000000001FE01000000000001FE010000000001FE010000000001FE01000000000100FE010000000000000000000000000000000000000000000000
310
00000000000000000000000000000000000000000000000000000000000000000000000000FE00000000000000FE000000000000FE000000000000FE00000000000000FE000000000000FE000000000000FE00000000000000FE000000000000FE000000000000FE00000000000000FE000000000000FE000000000000FE00
310
000000000000FE000000000000FE000000000000FE00000000000001FE00000000000000000000000000000000000000000000000000000000000000000000000000000000000000000000000000000000000000000000000000FE00000000000000FE000000000000FE000000000000FE00000000000000FE000000000000
310
FE000000000000FE00000000000000FE000000000000FE000000000000FE00000000000000FE000000000000FE000000000000FE00000000000000FE000000000000FE000000000000FE00000000000000FE000000000000000000000000000000000000000000000000000000000000000000000000000000000000000000
310
00000000000000000000000000000000FE00000000000000FE000000000000FE000000000000FE00000000000000FE000000000000FE000000000000FE00000000000000FE000000000000FE000000000000FE00000000000000FE000000000000FE000000000000FE00000000000000FE000000000000FE000000000000FE
310
00000000000000FE00000000000000000000000000000000000000000000000000000000000000000000000000000000000000000000000000000000000000000000000000FE00000000000000FE000000000000FE000000000000FE00000000000000FE000000000000FE000000000000FE00000000000000FE0000000000
310
00FE000000000000FE00000000000000FE000000000000FE000000000000FE00000000000000FE000000000000FE000000000000FE00000000000000FE00000000000000000000000000000000000000000000000000000000000000000000000000000000000000000000000000000000000000000000000000FE01000000
310
000000FE000000000000FE000000000000FE00000000000000FE000000000000FE000000000000FE00000000000000FE000000000000FE000000000000FE00000000000000FE000000000000FE000000000000FE00000000000000FE000000000000FE000000000000FE00000000000000FE00000000000000000000000000
310
000000000000000000000000000000000000000000000000000000000000000000000000000000000000000000000001FE00010000000001FE010000000001FE010000000001FE01000000000001FE010000000001FE010000000001FE01000000000001FE010000000001FE010000000001FE01000000000001FE01000000
310
0001FE010000000001FE01000000000001FE010000000001FE010000000001FE01000000000101FE010000000000000000000000000000000000000000000000000000000000FEFEFEFEFEFEFEFEFEFEFEFEFEFEFEFEFEFEFEFEFEFEFEFEFEFEFEFEFEFEFEFEFEFEFEFEFEFEFEFEFEFEFEFEFEFEFEFEFEFEFEFEFEFEFEFEFE
310
FEFEFEFEFEFEFEFEFEFEFEFEFEFEFEFEFEFEFEFEFEFEFEFEFEFEFEFEFEFEFEFEFEFEFEFEFEFEFEFEFEFEFEFEFEFEFEFEFEFEFEFEFEFEFEFEFEFEFEFEFEFEFEFEFEFEFEFEFEFEFEFEFEFEFEFEFEFEFEFEFEFEFEFEFEFEFEFEFEFEFEFEFEFEFEFEFEFEFEFEFEFEFEFEFEFEFEFEFEFEFEFEFEFEFEFEFEFEFEFEFEFEFE00000000
310
000000000000000000000000000000000000000000000000000001FE01010000000001FE010000000001FE010000000001FE01000000000001FE010000000001FE010000000001FE01000000000001FE010000000001FE010000000001FE01000000000001FE010000000001FE010000000001FE01000000000001FE010000
310
000001FE010000000001FE01000000000101FE01000000000000000000000000000000000000000000000000000000000000000000000000000000000000000000000000000000000000000000000000FE00000000000000FE000000000000FE000000000000FE00000000000000FE000000000000FE000000000000FE0000
310
0000000000FE000000000000FE000000000000FE00000000000000FE000000000000FE000000000000FE00000000000000FE000000000000FE000000000000FE00000000000000FE00000000000000000000000000000000000000000000000000000000000000000000000000000000000000000000000000000000000000
310
000000000000FE00000000000000FE000000000000FE000000000000FE00000000000000FE000000000000FE000000000000FE00000000000000FE000000000000FE000000000000FE00000000000000FE000000000000FE000000000000FE00000000000000FE000000000000FE000000000000FE00000000000000FE0000
310
0000000000000000000000000000000000000000000000000000000000000000000000000000000000000000000000000000000000000000000000FE00000000000000FE000000000000FE000000000000FE00000000000000FE000000000000FE000000000000FE00000000000000FE000000000000FE000000000000FE00
310
000000000000FE000000000000FE000000000000FE00000000000000FE000000000000FE000000000000FE00000000000000FE00000000000000000000000000000000000000000000000000000000000000000000000000000000000000000000000000000000000000000000000000FE01000000000000FE000000000000
310
FE000000000000FE00000000000000FE000000000000FE000000000000FE00000000000000FE000000000000FE000000000000FE00000000000000FE000000000000FE000000000000FE00000000000000FE000000000000FE000000000000FE00000000000000FE0000000000000000000000000000000000000000000000
310
0000000000000000000000000000000000000000000000000000000000000000000000000001FE00010000000001FE010000000001FE010000000001FE01000000000001FE010000000001FE010000000001FE01000000000001FE010000000001FE010000000001FE01000000000001FE010000000001FE010000000001FE
310
01000000000001FE010000000001FE010000000001FE01000000000101FE010000000000000000000000000000000000000000000000000000000000FEFEFEFEFEFEFEFEFEFEFEFEFEFEFEFEFEFEFEFEFEFEFEFEFEFEFEFEFEFEFEFEFEFEFEFEFEFEFEFEFEFEFEFEFEFEFEFEFEFEFEFEFEFEFEFEFEFEFEFEFEFEFEFEFEFEFE
310
FEFEFEFEFEFEFEFEFEFEFEFEFEFEFEFEFEFEFEFEFEFEFEFEFEFEFEFEFEFEFEFEFEFEFEFEFEFEFEFEFEFEFEFEFEFEFEFEFEFEFEFEFEFEFEFEFEFEFEFEFEFEFEFEFEFEFEFEFEFEFEFEFEFEFEFEFEFEFEFEFEFEFEFEFEFEFEFEFEFEFEFEFEFEFEFEFEFEFEFEFEFEFEFEFEFEFEFEFEFEFEFEFE0000000000000000000000000000
310
0000000000000000000000000000000001FE01010000000001FE010000000001FE010000000001FE01000000000001FE010000000001FE010000000001FE01000000000001FE010000000001FE010000000001FE01000000000001FE010000000001FE010000000001FE01000000000001FE010000000001FE010000000001
310
FE01000000000101FE01000000000000000000000000000000000000000000000000000000000000000000000000000000000000000000000000000000000000000000000000FE00000000000000FE000000000000FE000000000000FE00000000000000FE000000000000FE000000000000FE00000000000000FE00000000
310
0000FE000000000000FE00000000000000FE000000000000FE000000000000FE00000000000000FE000000000000FE000000000000FE00000000000000FE00000000000000000000000000000000000000000000000000000000000000000000000000000000000000000000000000000000000000000000000000FE000000
310
00000000FE000000000000FE000000000000FE00000000000000FE000000000000FE000000000000FE00000000000000FE000000000000FE000000000000FE00000000000000FE000000000000FE000000000000FE00000000000000FE000000000000FE000000000000FE00000000000000FE000000000000000000000000
310
00000000000000000000000000000000000000000000000000000000000000000000000000000000000000000000000000FE00000000000000FE000000000000FE000000000000FE00000000000000FE000000000000FE000000000000FE00000000000000FE000000000000FE000000000000FE00000000000000FE000000
310
000000FE000000000000FE00000000000000FE000000000000FE000000000000FE00000000000000FE00000000000000000000000000000000000000000000000000000000000000000000000000000000000000000000000000000000000000000000000000FE00000000000000FE000000000000FE000000000000FE0000
310
0000000000FE000000000000FE000000000000FE00000000000000FE000000000000FE000000000000FE00000000000000FE000000000000FE000000000000FE00000000000000FE000000000000FE000000000000FE00000000000000FE000000000000000000000000000000000000000000000000000000000000000000
310
00000000000000000000000000000000000000000000000000000001FE01010000000001FE010000000001FE010000000001FE01000000000001FE010000000001FE010000000001FE01000000000001FE010000000001FE010000000001FE01000000000001FE010000000001FE010000000001FE01000000000001FE0100
310
00000001FE010000000001FE01000000000101FE010000000000000000000000000000000000000000000000000000000000FEFEFEFEFEFEFEFEFEFEFEFEFEFEFEFEFEFEFEFEFEFEFEFEFEFEFEFEFEFEFEFEFEFEFEFEFEFEFEFEFEFEFEFEFEFEFEFEFEFEFEFEFEFEFEFEFEFEFEFEFEFEFEFEFEFEFEFEFEFEFEFEFEFEFEFEFE
310
FEFEFEFEFEFEFEFEFEFEFEFEFEFEFEFEFEFEFEFEFEFEFEFEFEFEFEFEFEFEFEFEFEFEFEFEFEFEFEFEFEFEFEFEFEFEFEFEFEFEFEFEFEFEFEFEFEFEFEFEFEFEFEFEFEFEFEFEFEFEFEFEFEFEFEFEFEFEFEFEFEFEFEFEFEFEFEFEFEFEFEFEFEFEFEFEFEFEFEFEFEFEFE000000000000000000000000000000000000000000000000
310
00000000000001FE01010000000001FE010000000001FE010000000001FE01000000000001FE010000000001FE010000000001FE01000000000001FE010000000001FE010000000001FE01000000000001FE010000000001FE010000000001FE01000000000001FE010000000001FE010000000001FE01000000000100FE01
310
000000000000000000000000000000000000000000000000000000000000000000000000000000000000000000000000000000000000000000000000FE00000000000000FE000000000000FE000000000000FE00000000000000FE000000000000FE000000000000FE00000000000000FE000000000000FE000000000000FE
310
00000000000000FE000000000000FE000000000000FE00000000000000FE000000000000FE000000000000FE00000000000001FE00000000000000000000000000000000000000000000000000000000000000000000000000000000000000000000000000000000000000000000000000FE00000000000000FE0000000000
310
00FE000000000000FE00000000000000FE000000000000FE000000000000FE00000000000000FE000000000000FE000000000000FE00000000000000FE000000000000FE000000000000FE00000000000000FE000000000000FE000000000000FE00000000000000FE00000000000000000000000000000000000000000000
310
000000000000000000000000000000000000000000000000000000000000000000000000000000FE00000000000000FE000000000000FE000000000000FE00000000000000FE000000000000FE000000000000FE00000000000000FE000000000000FE000000000000FE00000000000000FE000000000000FE000000000000
310
FE00000000000000FE000000000000FE000000000000FE00000000000000FE00000000000000000000000000000000000000000000000000000000000000000000000000000000000000000000000000000000000000000000000000FE00000000000000FE000000000000FE000000000000FE00000000000000FE00000000
310
0000FE000000000000FE00000000000000FE000000000000FE000000000000FE00000000000000FE000000000000FE000000000000FE00000000000000FE000000000000FE000000000000FE00000000000000FE00000000000000000000000000000000000000000000000000000000000000000000000000000000000000
310
000000000000000000000000000000000000FE01000000000000FE000000000000FE000000000000FE00000000000000FE000000000000FE000000000000FE00000000000000FE000000000000FE000000000000FE00000000000000FE000000000000FE000000000000FE00000000000000FE000000000000FE0000000000
310
00FE00000000000000FE00000000000000000000000000000000000000000000000000000000000000000000000000000000000000000000000000000000000000000000000001FE00010000000001FE010000000001FE010000000001FE01000000000001FE010000000001FE010000000001FE01000000000001FE010000
310
000001FE010000000001FE01000000000001FE010000000001FE010000000001FE01000000000001FE010000000001FE010000000001FE01000000000101FE010000000000000000000000000000000000000000000000000000000000FEFEFEFEFEFEFEFEFEFEFEFEFEFEFEFEFEFEFEFEFEFEFEFEFEFEFEFEFEFEFEFEFEFE
310
FEFEFEFEFEFEFEFEFEFEFEFEFEFEFEFEFEFEFEFEFEFEFEFEFEFEFEFEFEFEFEFEFEFEFEFEFEFEFEFEFEFEFEFEFEFEFEFEFEFEFEFEFEFEFEFEFEFEFEFEFEFEFEFEFEFEFEFEFEFEFEFEFEFEFEFEFEFEFEFEFEFEFEFEFEFEFEFEFEFEFEFEFEFEFEFEFEFEFEFEFEFEFEFEFEFEFEFEFEFEFEFEFEFEFEFEFEFEFEFEFEFEFEFEFEFEFE
310
FEFEFEFEFEFEFEFEFEFEFEFEFEFEFEFEFEFEFE00000000000000000000000000000000000000000000000000000000000001FE01010000000001FE010000000001FE010000000001FE01000000000001FE010000000001FE010000000001FE01000000000001FE010000000001FE010000000001FE01000000000001FE0100
310
00000001FE010000000001FE01000000000001FE010000000001FE010000000001FE01000000000101FE01000000000000000000000000000000000000000000000000000000000000000000000000000000000000000000000000000000000000000000000000FE00000000000000FE000000000000FE000000000000FE00
310
000000000000FE000000000000FE000000000000FE00000000000000FE000000000000FE000000000000FE00000000000000FE000000000000FE000000000000FE00000000000000FE000000000000FE000000000000FE00000000000000FE0000000000000000000000000000000000000000000000000000000000000000
310
0000000000000000000000000000000000000000000000000000000000FE00000000000000FE000000000000FE000000000000FE00000000000000FE000000000000FE000000000000FE00000000000000FE000000000000FE000000000000FE00000000000000FE000000000000FE000000000000FE00000000000000FE00
310
0000000000FE000000000000FE00000000000000FE00000000000000000000000000000000000000000000000000000000000000000000000000000000000000000000000000000000000000000000000000FE00000000000000FE000000000000FE000000000000FE00000000000000FE000000000000FE000000000000FE
310
00000000000000FE000000000000FE000000000000FE00000000000000FE000000000000FE000000000000FE00000000000000FE000000000000FE000000000000FE00000000000000FE0000000000000000000000000000000000000000000000000000000000000000000000000000000000000000000000000000000000
310
0000000000000000FE00000000000000FE000000000000FE000000000000FE00000000000000FE000000000000FE000000000000FE00000000000000FE000000000000FE000000000000FE00000000000000FE000000000000FE000000000000FE00000000000000FE000000000000FE000000000000FE00000000000000FE
310
00000000000000000000000000000000000000000000000000000000000000000000000000000000000000000000000000000000000000000000000000FE00000000000000FE000000000000FE000000000000FE00000000000000FE000000000000FE000000000000FE00000000000000FE000000000000FE000000000000
310
FE00000000000000FE000000000000FE000000000000FE00000000000000FE000000000000FE000000000000FE00000000000000FE000000000000000000000000000000000000000000000000000000000000FEFEFEFEFEFEFEFEFEFEFEFEFEFEFEFEFEFEFEFEFEFEFEFEFEFEFEFEFEFEFEFEFEFEFEFEFEFEFEFEFEFEFEFE
310
FEFEFEFEFEFEFEFEFEFEFEFEFEFEFEFEFEFEFEFEFEFEFEFEFEFEFEFEFEFEFEFEFEFEFEFEFEFEFEFEFEFEFEFEFEFEFEFEFEFEFEFEFEFEFEFEFEFEFEFEFEFEFEFEFEFEFEFEFEFEFEFEFEFEFEFEFEFEFEFEFEFEFEFEFEFEFEFEFEFEFEFEFEFEFEFEFEFEFEFEFEFEFEFEFEFEFEFEFEFEFEFEFEFEFEFEFEFEFEFEFEFEFEFEFEFEFE
310
FEFEFEFEFEFEFEFEFE00000000000000000000000000000000000000000000000000000000000000FE00000000000000FE000000000000FE000000000000FE00000000000000FE000000000000FE000000000000FE00000000000000FE000000000000FE000000000000FE00000000000000FE000000000000FE0000000000
310
00FE00000000000000FE000000000000FE000000000000FE00000000000000FE00000000000000000000000000000000000000000000000000000000000000000000000000000000000000000000000000000000000000000000000000FE00000000000000FE000000000000FE000000000000FE00000000000000FE000000
310
000000FE000000000000FE00000000000000FE000000000000FE000000000000FE00000000000000FE000000000000FE000000000000FE00000000000000FE000000000000FE000000000000FE00000000000000FE000000000000000000000000000000000000000000000000000000000000000000000000000000000000
310
00000000000000000000000000000000000000FE00000000000000FE000000000000FE000000000000FE00000000000000FE000000000000FE000000000000FE00000000000000FE000000000000FE000000000000FE00000000000000FE000000000000FE000000000000FE00000000000000FE000000000000FE00000000
310
0000FE00000000000000FE00000000000000000000000000000000000000000000000000000000000000000000000000000000000000000000000000000000000000000000000000FE00000000000000FE000000000000FE000000000000FE00000000000000FE000000000000FE000000000000FE00000000000000FE0000
310
00000000FE000000000000FE00000000000000FE000000000000FE000000000000FE00000000000000FE000000000000FE000000000000FE00000000000000FE00000000000000000000000000000000000000000000000000000000000000000000000000000000000000000000000000000000000000000000000000FE00
310
000000000000FE000000000000FE000000000000FE00000000000000FE000000000000FE000000000000FE00000000000000FE000000000000FE000000000000FE00000000000000FE000000000000FE000000000000FE00000000000000FE000000000000FE000000000000FE00000000000000FE00000000000000000000
310
000000000000000000000000000000000000000000000000000000000000000000000000000000000000000000000000000000FE00000000000000FE000000000000FE000000000000FE00000000000000FE000000000000FE000000000000FE00000000000000FE000000000000FE000000000000FE00000000000000FE00
310
0000000000FE000000000000FE00000000000000FE000000000000FE000000000000FE00000000000000FE000000000000000000000000000000000000000000000000000000000000FEFEFEFEFEFEFEFEFEFEFEFEFEFEFEFEFEFEFEFEFEFEFEFEFEFEFEFEFEFEFEFEFEFEFEFEFEFEFEFEFEFEFEFEFEFEFEFEFEFEFEFEFEFE
310
FEFEFEFEFEFEFEFEFEFEFEFEFEFEFEFEFEFEFEFEFEFEFEFEFEFEFEFEFEFEFEFEFEFEFEFEFEFEFEFEFEFEFEFEFEFEFEFEFEFEFEFEFEFEFEFEFEFEFEFEFEFEFEFEFEFEFEFEFEFEFEFEFEFEFEFEFEFEFEFEFEFEFEFEFEFEFEFEFEFEFEFEFEFEFEFEFEFEFEFEFEFEFEFEFEFEFEFEFEFEFEFEFEFEFEFEFEFEFEFEFEFEFEFEFEFE00
310
000000000000000000000000000000000000000000000000000000000000FE00000000000000FE000000000000FE000000000000FE00000000000000FE000000000000FE000000000000FE00000000000000FE000000000000FE000000000000FE00000000000000FE000000000000FE000000000000FE00000000000000FE
310
000000000000FE000000000000FE00000000000000FE00000000000000000000000000000000000000000000000000000000000000000000000000000000000000000000000000000000000000000000000000FE00000000000000FE000000000000FE000000000000FE00000000000000FE000000000000FE000000000000
310
FE00000000000000FE000000000000FE000000000000FE00000000000000FE000000000000FE000000000000FE00000000000000FE000000000000FE000000000000FE00000000000000FE00000000000000000000000000000000000000000000000000000000000000000000000000000000000000000000000000000000
310
000000000000000000FE00000000000000FE000000000000FE000000000000FE00000000000000FE000000000000FE000000000000FE00000000000000FE000000000000FE000000000000FE00000000000000FE000000000000FE000000000000FE00000000000000FE000000000000FE000000000000FE00000000000000
310
FE00000000000000000000000000000000000000000000000000000000000000000000000000000000000000000000000000000000000000000000000000FE00000000000000FE000000000000FE000000000000FE00000000000000FE000000000000FE000000000000FE00000000000000FE000000000000FE0000000000
310
00FE00000000000000FE000000000000FE000000000000FE00000000000000FE000000000000FE000000000000FE00000000000000FE00000000000000000000000000000000000000000000000000000000000000000000000000000000000000000000000000000000000000000000000000FE00000000000000FE000000
310
000000FE000000000000FE00000000000000FE000000000000FE000000000000FE00000000000000FE000000000000FE000000000000FE00000000000000FE000000000000FE000000000000FE00000000000000FE000000000000FE000000000000FE00000000000000FE0000000000000000000000000000000000000000
310
0000000000000000000000000000000000000000000000000000000000000000000000000000000001FE01010000000001FE010000000001FE010000000001FE01000000000001FE010000000001FE010000000001FE01000000000001FE010000000001FE010000000001FE01000000000001FE010000000001FE01000000
310
0001FE01000000000001FE010000000001FE010000000001FE01000000000101FE010000000000000000000000000000000000000000000000000000000000FEFEFEFEFEFEFEFEFEFEFEFEFEFEFEFEFEFEFEFEFEFEFEFEFEFEFEFEFEFEFEFEFEFEFEFEFEFEFEFEFEFEFEFEFEFEFEFEFEFEFEFEFEFEFEFEFEFEFEFEFEFEFEFE
310
FEFEFEFEFEFEFEFEFEFEFEFEFEFEFEFEFEFEFEFEFEFEFEFEFEFEFEFEFEFEFEFEFEFEFEFEFEFEFEFEFEFEFEFEFEFEFEFEFEFEFEFEFEFEFEFEFEFEFEFEFEFEFEFEFEFEFEFEFEFEFEFEFEFEFEFEFEFEFEFEFEFEFEFEFEFEFEFEFEFEFEFEFEFEFEFEFEFEFEFEFEFEFEFEFEFEFEFEFEFEFEFEFEFEFEFE0000000000000000000000
310
0000000000000000000000000000000000000001FE01010000000001FE010000000001FE010000000001FE01000000000001FE010000000001FE010000000001FE01000000000001FE010000000001FE010000000001FE01000000000001FE010000000001FE010000000001FE01000000000001FE010000000001FE010000
310
000001FE01000000000100FE01000000000000000000000000000000000000000000000000000000000000000000000000000000000000000000000000000000000000000000000000FE00000000000000FE000000000000FE000000000000FE00000000000000FE000000000000FE000000000000FE00000000000000FE00
310
0000000000FE000000000000FE00000000000000FE000000000000FE000000000000FE00000000000000FE000000000000FE000000000000FE00000000000001FE00000000000000000000000000000000000000000000000000000000000000000000000000000000000000000000000000000000000000000000000000FE
310
00000000000000FE000000000000FE000000000000FE00000000000000FE000000000000FE000000000000FE00000000000000FE000000000000FE000000000000FE00000000000000FE000000000000FE000000000000FE00000000000000FE000000000000FE000000000000FE00000000000000FE000000000000000000
310
00000000000000000000000000000000000000000000000000000000000000000000000000000000000000000000000000000000FE00000000000000FE000000000000FE000000000000FE00000000000000FE000000000000FE000000000000FE00000000000000FE000000000000FE000000000000FE00000000000000FE
310
000000000000FE000000000000FE00000000000000FE000000000000FE000000000000FE00000000000000FE00000000000000000000000000000000000000000000000000000000000000000000000000000000000000000000000000000000000000000000000000FE00000000000000FE000000000000FE000000000000
310
FE00000000000000FE000000000000FE000000000000FE00000000000000FE000000000000FE000000000000FE00000000000000FE000000000000FE000000000000FE00000000000000FE000000000000FE000000000000FE00000000000000FE000000000000000000000000000000000000000000000000000000000000
310
00000000000000000000000000000000000000000000000000000000000000FE01000000000000FE000000000000FE000000000000FE00000000000000FE000000000000FE000000000000FE00000000000000FE000000000000FE000000000000FE00000000000000FE000000000000FE000000000000FE00000000000000
310
FE000000000000FE000000000000FE00000000000000FE00000000000000000000000000000000000000000000000000000000000000000000000000000000000000000000000000000000000000000000000001FE00010000000001FE010000000001FE010000000001FE01000000000001FE010000000001FE0100000000
310
01FE01000000000001FE010000000001FE010000000001FE01000000000001FE010000000001FE010000000001FE01000000000001FE010000000001FE010000000001FE01000000000101FE010000000000000000000000000000000000000000000000000000000000FEFEFEFEFEFEFEFEFEFEFEFEFEFEFEFEFEFEFEFEFE
310
FEFEFEFEFEFEFEFEFEFEFEFEFEFEFEFEFEFEFEFEFEFEFEFEFEFEFEFEFEFEFEFEFEFEFEFEFEFEFEFEFEFEFEFEFEFEFEFEFEFEFEFEFEFEFEFEFEFEFEFEFEFEFEFEFEFEFEFEFEFEFEFEFEFEFEFEFEFEFEFEFEFEFEFEFEFEFEFEFEFEFEFEFEFEFEFEFEFEFEFEFEFEFEFEFEFEFEFEFEFEFEFEFEFEFEFEFEFEFEFEFEFEFEFEFEFEFE
310
FEFEFEFEFEFEFEFEFEFEFEFEFEFEFEFEFEFEFEFEFEFEFEFEFEFEFEFEFEFEFEFE00000000000000000000000000000000000000000000000000000000000001FE01010000000001FE010000000001FE010000000001FE01000000000001FE010000000001FE010000000001FE01000000000001FE010000000001FE01000000
310
0001FE01000000000001FE010000000001FE010000000001FE01000000000001FE010000000001FE010000000001FE01000000000101FE01000000000000000000000000000000000000000000000000000000000000000000000000000000000000000000000000000000000000000000000000FE00000000000000FE0000
310
00000000FE000000000000FE00000000000000FE000000000000FE000000000000FE00000000000000FE000000000000FE000000000000FE00000000000000FE000000000000FE000000000000FE00000000000000FE000000000000FE000000000000FE00000000000000FE00000000000000000000000000000000000000
310
000000000000000000000000000000000000000000000000000000000000000000000000000000000000FE00000000000000FE000000000000FE000000000000FE00000000000000FE000000000000FE000000000000FE00000000000000FE000000000000FE000000000000FE00000000000000FE000000000000FE000000
310
000000FE00000000000000FE000000000000FE000000000000FE00000000000000FE00000000000000000000000000000000000000000000000000000000000000000000000000000000000000000000000000000000000000000000000000FE00000000000000FE000000000000FE000000000000FE00000000000000FE00
310
0000000000FE000000000000FE00000000000000FE000000000000FE000000000000FE00000000000000FE000000000000FE000000000000FE00000000000000FE000000000000FE000000000000FE00000000000000FE00000000000000000000000000000000000000000000000000000000000000000000000000000000
310
000000000000000000000000000000000000000000FE00000000000000FE000000000000FE000000000000FE00000000000000FE000000000000FE000000000000FE00000000000000FE000000000000FE000000000000FE00000000000000FE000000000000FE000000000000FE00000000000000FE000000000000FE0000
310
00000000FE00000000000000FE00000000000000000000000000000000000000000000000000000000000000000000000000000000000000000000000000000000000000000000000001FE01010000000001FE010000000001FE010000000001FE01000000000001FE010000000001FE010000000001FE01000000000001FE
310
010000000001FE010000000001FE01000000000001FE010000000001FE010000000001FE01000000000001FE010000000001FE010000000001FE01000000000101FE010000000000000000000000000000000000000000000000000000000000FEFEFEFEFEFEFEFEFEFEFEFEFEFEFEFEFEFEFEFEFEFEFEFEFEFEFEFEFEFEFE
310
FEFEFEFEFEFEFEFEFEFEFEFEFEFEFEFEFEFEFEFEFEFEFEFEFEFEFEFEFEFEFEFEFEFEFEFEFEFEFEFEFEFEFEFEFEFEFEFEFEFEFEFEFEFEFEFEFEFEFEFEFEFEFEFEFEFEFEFEFEFEFEFEFEFEFEFEFEFEFEFEFEFEFEFEFEFEFEFEFEFEFEFEFEFEFEFEFEFEFEFEFEFEFEFEFEFEFEFEFEFEFEFEFEFEFEFEFEFEFEFEFEFEFEFEFEFEFE
310
FEFEFEFEFEFEFEFEFEFEFEFEFEFEFEFEFEFEFEFEFEFE00000000000000000000000000000000000000000000000000000000000001FE01010000000001FE010000000001FE010000000001FE01000000000001FE010000000001FE010000000001FE01000000000001FE010000000001FE010000000001FE01000000000001
310
FE010000000001FE010000000001FE01000000000001FE010000000001FE010000000001FE01000000000100FE01000000000000000000000000000000000000000000000000000000000000000000000000000000000000000000000000000000000000000000000000FE00000000000000FE000000000000FE0000000000
310
00FE00000000000000FE000000000000FE000000000000FE00000000000000FE000000000000FE000000000000FE00000000000000FE000000000000FE000000000000FE00000000000000FE000000000000FE000000000000FE00000000000001FE0000000000000000000000000000000000000000000000000000000000
310
0000000000000000000000000000000000000000000000000000000000000000FE00000000000000FE000000000000FE000000000000FE00000000000000FE000000000000FE000000000000FE00000000000000FE000000000000FE000000000000FE00000000000000FE000000000000FE000000000000FE000000000000
310
00FE000000000000FE000000000000FE00000000000000FE00000000000000000000000000000000000000000000000000000000000000000000000000000000000000000000000000000000000000000000000000FE00000000000000FE000000000000FE000000000000FE00000000000000FE000000000000FE00000000
310
0000FE00000000000000FE000000000000FE000000000000FE00000000000000FE000000000000FE000000000000FE00000000000000FE000000000000FE000000000000FE00000000000000FE0000000000000000000000000000000000000000000000000000000000000000000000000000000000000000000000000000
310
0000000000000000000000FE00000000000000FE000000000000FE000000000000FE00000000000000FE000000000000FE000000000000FE00000000000000FE000000000000FE000000000000FE00000000000000FE000000000000FE000000000000FE00000000000000FE000000000000FE000000000000FE0000000000
310
0000FE00000000000000000000000000000000000000000000000000000000000000000000000000000000000000000000000000000000000000000000000001FE01010000000001FE010000000001FE010000000001FE01000000000001FE010000000001FE010000000001FE01000000000001FE010000000001FE010000
310
000001FE01000000000001FE010000000001FE010000000001FE01000000000001FE010000000001FE010000000001FE01000000000101FE010000000000000000000000000000000000000000000000000000000000FEFEFEFEFEFEFEFEFEFEFEFEFEFEFEFEFEFEFEFEFEFEFEFEFEFEFEFEFEFEFEFEFEFEFEFEFEFEFEFEFE
310
FEFEFEFEFEFEFEFEFEFEFEFEFEFEFEFEFEFEFEFEFEFEFEFEFEFEFEFEFEFEFEFEFEFEFEFEFEFEFEFEFEFEFEFEFEFEFEFEFEFEFEFEFEFEFEFEFEFEFEFEFEFEFEFEFEFEFEFEFEFEFEFEFEFEFEFEFEFEFEFEFEFEFEFEFEFEFEFEFEFEFEFEFEFEFEFEFEFEFEFEFEFEFEFEFEFEFEFEFEFEFEFEFEFEFEFEFEFEFEFEFEFEFEFEFEFEFE
310
FEFEFEFEFEFEFEFEFEFEFEFE00000000000000000000000000000000000000000000000000000000000001FE01010000000001FE010000000001FE010000000001FE01000000000001FE010000000001FE010000000001FE01000000000001FE010000000001FE010000000001FE01000000000001FE010000000001FE0100
310
00000001FE01000000000001FE010000000001FE010000000001FE01000000000100FE01000000000000000000000000000000000000000000000000000000000000000000000000000000000000000000000000000000000000000000000000FE00000000000000FE000000000000FE000000000000FE00000000000000FE
310
000000000000FE000000000000FE00000000000000FE000000000000FE000000000000FE00000000000000FE000000000000FE000000000000FE00000000000000FE000000000000FE000000000000FE00000000000001FE000000000000000000000000000000000000000000000000000000000000000000000000000000
310
00000000000000000000000000000000000000000000FE00000000000000FE000000000000FE000000000000FE00000000000000FE000000000000FE000000000000FE00000000000000FE000000000000FE000000000000FE00000000000000FE000000000000FE000000000000FE00000000000000FE000000000000FE00
310
0000000000FE00000000000000FE00000000000000000000000000000000000000000000000000000000000000000000000000000000000000000000000000000000000000000000000000FE00000000000000FE000000000000FE000000000000FE00000000000000FE000000000000FE000000000000FE00000000000000
310
FE000000000000FE000000000000FE00000000000000FE000000000000FE000000000000FE00000000000000FE000000000000FE000000000000FE00000000000000FE000000000000000000000000000000000000000000000000000000000000000000000000000000000000000000000000000000000000000000000000
310
00FE00000000000000FE000000000000FE000000000000FE00000000000000FE000000000000FE000000000000FE00000000000000FE000000000000FE000000000000FE00000000000000FE000000000000FE000000000000FE00000000000000FE000000000000FE000000000000FE00000000000000FE00000000000000
310
000000000000000000000000000000000000000000000000000000000000000000000000000000000000000000000000000000000000FE01000000000000FE000000000000FE000000000000FE00000000000000FE000000000000FE000000000000FE00000000000000FE000000000000FE000000000000FE000000000000
310
00FE000000000000FE000000000000FE00000000000000FE000000000000FE000000000000FE00000000000000FE00000000000000000000000000000000000000000000000000000000000000000000000000000000000000000000000000000000000000000000000001FE00010000000001FE010000000001FE01000000
310
0001FE01000000000001FE010000000001FE010000000001FE01000000000001FE010000000001FE010000000001FE01000000000001FE010000000001FE010000000001FE01000000000001FE010000000001FE010000000001FE01000000000101FE01000000000000000000000000000000000000000000000000000000
310
0000FEFEFEFEFEFEFEFEFEFEFEFEFEFEFEFEFEFEFEFEFEFEFEFEFEFEFEFEFEFEFEFEFEFEFEFEFEFEFEFEFEFEFEFEFEFEFEFEFEFEFEFEFEFEFEFEFEFEFEFEFEFEFEFEFEFEFEFEFEFEFEFEFEFEFEFEFEFEFEFEFEFEFEFEFEFEFEFEFEFEFEFEFEFEFEFEFEFEFEFEFEFEFEFEFEFEFEFEFEFEFEFEFEFEFEFEFEFEFEFEFEFEFEFEFE
310
FEFEFEFEFEFEFEFEFEFEFEFEFEFEFEFEFEFEFEFEFEFEFEFEFEFEFEFEFEFEFEFEFEFEFEFEFEFEFEFEFEFEFEFEFEFEFEFEFEFEFEFEFEFEFE00000000000000000000000000000000000000000000000000000000000001FE01010000000001FE010000000001FE010000000001FE01000000000001FE010000000001FE010000
310
000001FE01000000000001FE010000000001FE010000000001FE01000000000001FE010000000001FE010000000001FE01000000000001FE010000000001FE010000000001FE01000000000101FE010000000000000000000000000000000000000000000000000000000000
  0
ENDSEC
  0
EOF
