<?xml version="1.0" encoding="UTF-8" standalone="no"?>
<!-- Created with Inkscape (http://www.inkscape.org/) -->

<svg
   xmlns:dc="http://purl.org/dc/elements/1.1/"
   xmlns:cc="http://creativecommons.org/ns#"
   xmlns:rdf="http://www.w3.org/1999/02/22-rdf-syntax-ns#"
   xmlns:svg="http://www.w3.org/2000/svg"
   xmlns="http://www.w3.org/2000/svg"
   xmlns:sodipodi="http://sodipodi.sourceforge.net/DTD/sodipodi-0.dtd"
   xmlns:inkscape="http://www.inkscape.org/namespaces/inkscape"
   width="744.09448819"
   height="1052.3622047"
   id="svg2"
   version="1.1"
   inkscape:version="0.49 r12500 custom"
   sodipodi:docname="CUBEBOT Logo.svg">
  <defs
     id="defs4">
    <inkscape:perspective
       sodipodi:type="inkscape:persp3d"
       inkscape:vp_x="0 : 526.18109 : 1"
       inkscape:vp_y="0 : 1000 : 0"
       inkscape:vp_z="744.09448 : 526.18109 : 1"
       inkscape:persp3d-origin="372.04724 : 350.78739 : 1"
       id="perspective3261" />
  </defs>
  <sodipodi:namedview
     id="base"
     pagecolor="#ffffff"
     bordercolor="#666666"
     borderopacity="1.0"
     inkscape:pageopacity="0.0"
     inkscape:pageshadow="2"
     inkscape:zoom="0.9899495"
     inkscape:cx="318.43587"
     inkscape:cy="837.22453"
     inkscape:document-units="px"
     inkscape:current-layer="layer1"
     showgrid="false"
     inkscape:window-width="1600"
     inkscape:window-height="834"
     inkscape:window-x="0"
     inkscape:window-y="0"
     inkscape:window-maximized="1" />
  <metadata
     id="metadata7">
    <rdf:RDF>
      <cc:Work
         rdf:about="">
        <dc:format>image/svg+xml</dc:format>
        <dc:type
           rdf:resource="http://purl.org/dc/dcmitype/StillImage" />
        <dc:title />
      </cc:Work>
    </rdf:RDF>
  </metadata>
  <g
     inkscape:label="Layer 1"
     inkscape:groupmode="layer"
     id="layer1">
    <rect
       style="fill:#165016;fill-opacity:1;stroke:none"
       id="rect3277"
       width="55.980446"
       height="56.785713"
       x="160.16797"
       y="34.793171"
       transform="matrix(0.8099592,0.58648623,0,1,0,0)"
       inkscape:export-xdpi="90.646828"
       inkscape:export-ydpi="90.646828" />
    <path
       style="fill:#37c837;fill-opacity:1;stroke:none"
       d="m 225.36345,130.49721 -43.57621,31.19822 0.23348,56.40707 43.34273,-29.95779 z"
       id="rect3277-8"
       inkscape:connector-curvature="0"
       sodipodi:nodetypes="ccccc"
       inkscape:export-xdpi="90.646828"
       inkscape:export-ydpi="90.646828" />
    <rect
       style="fill:#2ca02c;fill-opacity:1;stroke:none"
       id="rect3299"
       width="56.568047"
       height="56.522812"
       x="187.65665"
       y="-32.449406"
       transform="matrix(0.80874256,0.58816279,-0.8128597,0.58245953,0,0)"
       inkscape:export-xdpi="90.646828"
       inkscape:export-ydpi="90.646828" />
    <path
       style="fill:#c8ab37;fill-opacity:1;stroke:none"
       d="m 126.40485,129.68443 0,58.10575 52.59711,36.17969 0,-19.30851 -37.43415,-25.21157 0.25254,-38.07225 z"
       id="rect3277-2"
       inkscape:connector-curvature="0"
       sodipodi:nodetypes="ccccccc"
       inkscape:export-xdpi="90.646828"
       inkscape:export-ydpi="90.646828" />
    <path
       style="fill:#504416;fill-opacity:1;stroke:none"
       d="m 229.19183,131.74602 -14.00453,9.83784 0,37.74759 -36.33532,25.52646 0,19.04863 50.33985,-35.36236 0,-56.79816 z"
       id="rect3277-8-9"
       inkscape:connector-curvature="0"
       inkscape:export-xdpi="90.646828"
       inkscape:export-ydpi="90.646828" />
    <path
       inkscape:connector-curvature="0"
       id="path3477"
       style="font-size:130.26698303px;font-style:normal;font-variant:normal;font-weight:bold;font-stretch:normal;line-height:125%;letter-spacing:0px;word-spacing:0px;fill:#0b280b;fill-opacity:1;stroke:none;font-family:Open Sans;-inkscape-font-specification:Open Sans Bold"
       d="m 91.197559,115.52108 q -11.131212,0 -17.237477,8.39611 -6.106264,8.33251 -6.106264,23.28014 0,31.10378 23.343741,31.10378 9.795471,0 23.725381,-4.89773 l 0,16.5378 q -11.44924,4.77052 -25.569982,4.77052 -20.290609,0 -31.040179,-12.27614 -10.749571,-12.33974 -10.749571,-35.36545 0,-14.50238 5.279375,-25.37916 5.279375,-10.94039 15.138448,-16.72862 9.922681,-5.85184 23.216528,-5.85184 13.548271,0 27.223761,6.55151 l -6.36069,16.02895 q -5.21577,-2.48067 -10.49514,-4.32527 -5.279377,-1.8446 -10.367931,-1.8446 z"
       inkscape:export-xdpi="90.646828"
       inkscape:export-ydpi="90.646828" />
    <path
       inkscape:connector-curvature="0"
       id="path3479"
       style="font-size:130.26698303px;font-style:normal;font-variant:normal;font-weight:bold;font-stretch:normal;line-height:125%;letter-spacing:0px;word-spacing:0px;fill:#0b280b;fill-opacity:1;stroke:none;font-family:Open Sans;-inkscape-font-specification:Open Sans Bold"
       d="m 236.15774,100.44624 28.94115,0 q 19.78176,0 28.68673,5.66101 8.96857,5.59741 8.96857,17.87355 0,8.3325 -3.94363,13.67549 -3.88002,5.34298 -10.36793,6.4243 l 0,0.63607 q 8.84137,1.97181 12.72139,7.3784 3.94363,5.40659 3.94363,14.37516 0,12.72139 -9.22301,19.84536 -9.15939,7.12398 -24.93391,7.12398 l -34.79299,0 0,-92.99332 z m 19.71815,36.8284 11.44924,0 q 8.01448,0 11.57647,-2.48067 3.62559,-2.48067 3.62559,-8.20529 0,-5.34298 -3.94363,-7.63283 -3.88002,-2.35346 -12.33974,-2.35346 l -10.36793,0 0,20.67225 z m 0,15.64731 0,24.23424 12.8486,0 q 8.14168,0 12.02171,-3.11674 3.88002,-3.11674 3.88002,-9.54104 0,-11.57646 -16.5378,-11.57646 l -12.21253,0 z"
       inkscape:export-xdpi="90.646828"
       inkscape:export-ydpi="90.646828" />
    <path
       inkscape:connector-curvature="0"
       id="path3481"
       style="font-size:130.26698303px;font-style:normal;font-variant:normal;font-weight:bold;font-stretch:normal;line-height:125%;letter-spacing:0px;word-spacing:0px;fill:#0b280b;fill-opacity:1;stroke:none;font-family:Open Sans;-inkscape-font-specification:Open Sans Bold"
       d="m 377.2379,193.43956 -53.55703,0 0,-92.99332 53.55703,0 0,16.15615 -33.83888,0 0,20.41783 31.48543,0 0,16.15616 -31.48543,0 0,23.97981 33.83888,0 0,16.28337 z"
       inkscape:export-xdpi="90.646828"
       inkscape:export-ydpi="90.646828" />
    <path
       inkscape:connector-curvature="0"
       id="path3483"
       style="font-size:130.26698303px;font-style:normal;font-variant:normal;font-weight:bold;font-stretch:normal;line-height:125%;letter-spacing:0px;word-spacing:0px;fill:#504416;fill-opacity:1;stroke:none;font-family:Open Sans;-inkscape-font-specification:Open Sans Bold"
       d="m 430.54049,100.44624 28.94115,0 q 19.78176,0 28.68673,5.66101 8.96857,5.59741 8.96857,17.87355 0,8.3325 -3.94363,13.67549 -3.88002,5.34298 -10.36792,6.4243 l 0,0.63607 q 8.84136,1.97181 12.72138,7.3784 3.94363,5.40659 3.94363,14.37516 0,12.72139 -9.223,19.84536 -9.1594,7.12398 -24.93392,7.12398 l -34.79299,0 0,-92.99332 z m 19.71815,36.8284 11.44925,0 q 8.01447,0 11.57646,-2.48067 3.62559,-2.48067 3.62559,-8.20529 0,-5.34298 -3.94363,-7.63283 -3.88002,-2.35346 -12.33974,-2.35346 l -10.36793,0 0,20.67225 z m 0,15.64731 0,24.23424 12.8486,0 q 8.14169,0 12.02171,-3.11674 3.88002,-3.11674 3.88002,-9.54104 0,-11.57646 -16.5378,-11.57646 l -12.21253,0 z"
       inkscape:export-xdpi="90.646828"
       inkscape:export-ydpi="90.646828" />
    <path
       inkscape:connector-curvature="0"
       id="path3485"
       style="font-size:130.26698303px;font-style:normal;font-variant:normal;font-weight:bold;font-stretch:normal;line-height:125%;letter-spacing:0px;word-spacing:0px;fill:#504416;fill-opacity:1;stroke:none;font-family:Open Sans;-inkscape-font-specification:Open Sans Bold"
       d="m 602.47002,146.81568 q 0,23.08932 -11.44925,35.49267 -11.44925,12.40335 -32.82117,12.40335 -21.37193,0 -32.82118,-12.40335 -11.44924,-12.40335 -11.44924,-35.61988 0,-23.21653 11.44924,-35.42906 11.51286,-12.276134 32.94839,-12.276134 21.43553,0 32.75757,12.339744 11.38564,12.33974 11.38564,35.49266 z m -67.86859,0 q 0,15.5837 5.91544,23.47096 5.91544,7.88726 17.68273,7.88726 23.59816,0 23.59816,-31.35822 0,-31.42182 -23.47095,-31.42182 -11.76728,0 -17.74633,7.95087 -5.97905,7.88726 -5.97905,23.47095 z"
       inkscape:export-xdpi="90.646828"
       inkscape:export-ydpi="90.646828" />
    <path
       inkscape:connector-curvature="0"
       id="path3487"
       style="font-size:130.26698303px;font-style:normal;font-variant:normal;font-weight:bold;font-stretch:normal;line-height:125%;letter-spacing:0px;word-spacing:0px;fill:#504416;fill-opacity:1;stroke:none;font-family:Open Sans;-inkscape-font-specification:Open Sans Bold"
       d="m 657.74445,193.43956 -19.71815,0 0,-76.58274 -25.25195,0 0,-16.41058 70.22205,0 0,16.41058 -25.25195,0 0,76.58274 z"
       inkscape:export-xdpi="90.646828"
       inkscape:export-ydpi="90.646828" />
    <path
       sodipodi:type="arc"
       style="fill:#165016;fill-opacity:1;stroke:none"
       id="path3455"
       sodipodi:cx="374.26151"
       sodipodi:cy="329.59802"
       sodipodi:rx="15.657365"
       sodipodi:ry="15.657365"
       d="m 389.91887,329.59802 a 15.657365,15.657365 0 1 1 -31.31473,0 15.657365,15.657365 0 1 1 31.31473,0 z"
       transform="translate(26.263967,-180.81731)"
       inkscape:export-xdpi="90.646828"
       inkscape:export-ydpi="90.646828" />
    <path
       sodipodi:type="arc"
       style="fill:#ff2a2a;fill-opacity:1;stroke:none"
       id="path3455-5"
       sodipodi:cx="374.26151"
       sodipodi:cy="329.59802"
       sodipodi:rx="15.657365"
       sodipodi:ry="15.657365"
       d="m 389.91887,329.59802 a 15.657365,15.657365 0 1 1 -31.31473,0 15.657365,15.657365 0 1 1 31.31473,0 z"
       transform="translate(183.84777,-182.83759)"
       inkscape:export-xdpi="90.646828"
       inkscape:export-ydpi="90.646828" />
  </g>
</svg>
